<svg width="408" height="170" viewBox="0 0 408 170" fill="none" xmlns="http://www.w3.org/2000/svg">
<path d="M63.2008 167.584V160.567H64.0504V166.83H67.3121V167.584H63.2008ZM74.2749 164.076C74.2749 164.816 74.1413 165.455 73.874 165.994C73.6068 166.533 73.2402 166.949 72.7742 167.241C72.3083 167.534 71.7761 167.68 71.1777 167.68C70.5792 167.68 70.047 167.534 69.5811 167.241C69.1151 166.949 68.7485 166.533 68.4813 165.994C68.2141 165.455 68.0804 164.816 68.0804 164.076C68.0804 163.336 68.2141 162.696 68.4813 162.157C68.7485 161.618 69.1151 161.202 69.5811 160.91C70.047 160.618 70.5792 160.471 71.1777 160.471C71.7761 160.471 72.3083 160.618 72.7742 160.91C73.2402 161.202 73.6068 161.618 73.874 162.157C74.1413 162.696 74.2749 163.336 74.2749 164.076ZM73.4526 164.076C73.4526 163.468 73.351 162.955 73.1477 162.537C72.9467 162.119 72.6737 161.803 72.3288 161.588C71.9862 161.374 71.6025 161.266 71.1777 161.266C70.7528 161.266 70.3679 161.374 70.0231 161.588C69.6804 161.803 69.4075 162.119 69.2042 162.537C69.0032 162.955 68.9027 163.468 68.9027 164.076C68.9027 164.683 69.0032 165.196 69.2042 165.614C69.4075 166.032 69.6804 166.348 70.0231 166.563C70.3679 166.778 70.7528 166.885 71.1777 166.885C71.6025 166.885 71.9862 166.778 72.3288 166.563C72.6737 166.348 72.9467 166.032 73.1477 165.614C73.351 165.196 73.4526 164.683 73.4526 164.076ZM76.9781 167.584L75.0595 160.567H75.9229L77.3892 166.282H77.4578L78.9516 160.567H79.9109L81.4047 166.282H81.4732L82.9396 160.567H83.803L81.8843 167.584H81.0072L79.4586 161.993H79.4038L77.8552 167.584H76.9781ZM91.4124 162.321C91.3713 161.974 91.2046 161.705 90.9122 161.513C90.6198 161.321 90.2612 161.225 89.8364 161.225C89.5258 161.225 89.254 161.275 89.021 161.376C88.7903 161.476 88.6098 161.615 88.4796 161.79C88.3517 161.966 88.2878 162.166 88.2878 162.39C88.2878 162.577 88.3323 162.738 88.4214 162.873C88.5128 163.006 88.6293 163.116 88.7709 163.205C88.9125 163.292 89.0609 163.364 89.2163 163.421C89.3716 163.476 89.5143 163.521 89.6445 163.555L90.3572 163.747C90.5399 163.795 90.7432 163.861 90.967 163.945C91.1931 164.03 91.409 164.145 91.6146 164.291C91.8224 164.435 91.9937 164.62 92.1285 164.847C92.2632 165.073 92.3306 165.35 92.3306 165.679C92.3306 166.058 92.2313 166.401 92.0326 166.707C91.8361 167.013 91.5483 167.256 91.1692 167.437C90.7923 167.617 90.3343 167.707 89.7953 167.707C89.2928 167.707 88.8577 167.626 88.4899 167.464C88.1245 167.302 87.8367 167.076 87.6265 166.786C87.4187 166.496 87.3011 166.159 87.2736 165.775H88.1507C88.1736 166.04 88.2627 166.259 88.418 166.433C88.5756 166.604 88.7743 166.732 89.0141 166.817C89.2562 166.899 89.5166 166.94 89.7953 166.94C90.1196 166.94 90.4108 166.887 90.6689 166.782C90.9271 166.675 91.1315 166.526 91.2822 166.337C91.433 166.145 91.5084 165.921 91.5084 165.665C91.5084 165.432 91.4433 165.243 91.3131 165.097C91.1829 164.95 91.0116 164.832 90.7991 164.74C90.5867 164.649 90.3572 164.569 90.1105 164.5L89.2471 164.254C88.6989 164.096 88.2649 163.871 87.9452 163.579C87.6254 163.286 87.4655 162.904 87.4655 162.431C87.4655 162.038 87.5717 161.696 87.7841 161.403C87.9988 161.109 88.2866 160.88 88.6475 160.718C89.0107 160.554 89.4161 160.471 89.8638 160.471C90.3161 160.471 90.7181 160.552 91.0698 160.715C91.4216 160.874 91.7002 161.094 91.9058 161.372C92.1136 161.651 92.2233 161.967 92.2347 162.321H91.4124ZM93.7276 167.584V160.567H94.5773V166.83H97.839V167.584H93.7276ZM100.004 160.567V167.584H99.1546V160.567H100.004ZM101.708 167.584V160.567H104.079C104.629 160.567 105.079 160.667 105.429 160.865C105.78 161.062 106.041 161.328 106.21 161.664C106.379 161.999 106.463 162.374 106.463 162.787C106.463 163.201 106.379 163.577 106.21 163.915C106.043 164.253 105.785 164.522 105.436 164.723C105.086 164.922 104.638 165.021 104.093 165.021H102.393V164.267H104.065C104.442 164.267 104.745 164.202 104.973 164.072C105.201 163.942 105.367 163.766 105.47 163.545C105.575 163.321 105.627 163.068 105.627 162.787C105.627 162.506 105.575 162.255 105.47 162.034C105.367 161.812 105.2 161.638 104.97 161.513C104.739 161.385 104.433 161.321 104.051 161.321H102.558V167.584H101.708ZM107.832 167.584V160.567H110.203C110.754 160.567 111.203 160.667 111.553 160.865C111.905 161.062 112.165 161.328 112.334 161.664C112.503 161.999 112.588 162.374 112.588 162.787C112.588 163.201 112.503 163.577 112.334 163.915C112.167 164.253 111.909 164.522 111.56 164.723C111.21 164.922 110.763 165.021 110.217 165.021H108.517V164.267H110.189C110.566 164.267 110.869 164.202 111.097 164.072C111.326 163.942 111.491 163.766 111.594 163.545C111.699 163.321 111.752 163.068 111.752 162.787C111.752 162.506 111.699 162.255 111.594 162.034C111.491 161.812 111.325 161.638 111.094 161.513C110.863 161.385 110.557 161.321 110.176 161.321H108.682V167.584H107.832ZM113.528 167.584H112.637L115.214 160.567H116.091L118.667 167.584H117.777L115.68 161.677H115.625L113.528 167.584ZM113.857 164.843H117.448V165.597H113.857V164.843ZM124.227 162.76C124.152 162.529 124.052 162.323 123.929 162.14C123.808 161.955 123.663 161.797 123.494 161.667C123.327 161.537 123.138 161.437 122.925 161.369C122.713 161.3 122.48 161.266 122.226 161.266C121.811 161.266 121.433 161.374 121.092 161.588C120.752 161.803 120.481 162.119 120.28 162.537C120.079 162.955 119.979 163.468 119.979 164.076C119.979 164.683 120.08 165.196 120.284 165.614C120.487 166.032 120.762 166.348 121.109 166.563C121.457 166.778 121.847 166.885 122.281 166.885C122.683 166.885 123.037 166.799 123.343 166.628C123.652 166.455 123.891 166.21 124.063 165.895C124.236 165.577 124.323 165.204 124.323 164.775L124.583 164.829H122.473V164.076H125.145V164.829C125.145 165.407 125.022 165.91 124.775 166.337C124.531 166.764 124.193 167.095 123.761 167.33C123.332 167.563 122.838 167.68 122.281 167.68C121.66 167.68 121.114 167.534 120.643 167.241C120.175 166.949 119.81 166.533 119.547 165.994C119.287 165.455 119.156 164.816 119.156 164.076C119.156 163.521 119.231 163.022 119.379 162.578C119.53 162.133 119.742 161.754 120.016 161.441C120.29 161.128 120.615 160.888 120.989 160.721C121.364 160.555 121.776 160.471 122.226 160.471C122.596 160.471 122.941 160.527 123.261 160.639C123.583 160.749 123.87 160.905 124.121 161.109C124.374 161.31 124.586 161.551 124.755 161.832C124.924 162.11 125.04 162.42 125.104 162.76H124.227ZM126.601 167.584V160.567H130.835V161.321H127.45V163.692H130.616V164.446H127.45V166.83H130.89V167.584H126.601Z" fill="white"/>
<path d="M43.1387 169.352C46.247 169.352 48.7667 166.832 48.7667 163.724C48.7667 160.616 46.247 158.096 43.1387 158.096C40.0305 158.096 37.5107 160.616 37.5107 163.724C37.5107 166.832 40.0305 169.352 43.1387 169.352Z" fill="white"/>
<path d="M0.849682 40.552V33.5353H5.05698V34.289H1.69936V36.6599H4.74177V37.4137H1.69936V40.552H0.849682ZM6.51223 40.552V33.5353H10.7469V34.289H7.36191V36.6599H10.5277V37.4137H7.36191V39.7983H10.8018V40.552H6.51223ZM12.2784 40.552V33.5353H16.5131V34.289H13.1281V36.6599H16.2938V37.4137H13.1281V39.7983H16.5679V40.552H12.2784ZM21.8819 35.2895C21.8408 34.9423 21.674 34.6728 21.3817 34.4809C21.0893 34.289 20.7307 34.1931 20.3059 34.1931C19.9952 34.1931 19.7234 34.2433 19.4904 34.3438C19.2597 34.4443 19.0793 34.5825 18.9491 34.7584C18.8212 34.9343 18.7572 35.1341 18.7572 35.358C18.7572 35.5453 18.8018 35.7063 18.8909 35.8411C18.9822 35.9735 19.0987 36.0843 19.2403 36.1734C19.3819 36.2602 19.5304 36.3321 19.6857 36.3892C19.841 36.4441 19.9838 36.4886 20.114 36.5229L20.8266 36.7147C21.0094 36.7627 21.2126 36.8289 21.4365 36.9134C21.6626 36.998 21.8785 37.1133 22.084 37.2595C22.2919 37.4034 22.4632 37.5884 22.5979 37.8145C22.7327 38.0406 22.8001 38.3182 22.8001 38.6471C22.8001 39.0262 22.7007 39.3688 22.502 39.6749C22.3056 39.981 22.0178 40.2242 21.6386 40.4047C21.2617 40.5851 20.8038 40.6753 20.2647 40.6753C19.7622 40.6753 19.3271 40.5943 18.9594 40.4321C18.5939 40.2699 18.3061 40.0438 18.096 39.7537C17.8881 39.4636 17.7705 39.1267 17.7431 38.743H18.6202C18.643 39.008 18.7321 39.2272 18.8874 39.4008C19.045 39.5721 19.2438 39.7 19.4836 39.7845C19.7257 39.8668 19.9861 39.9079 20.2647 39.9079C20.5891 39.9079 20.8803 39.8554 21.1384 39.7503C21.3965 39.6429 21.6009 39.4945 21.7517 39.3049C21.9024 39.113 21.9778 38.8892 21.9778 38.6334C21.9778 38.4004 21.9127 38.2108 21.7825 38.0646C21.6523 37.9184 21.481 37.7997 21.2686 37.7083C21.0562 37.6169 20.8266 37.537 20.5799 37.4685L19.7166 37.2218C19.1684 37.0642 18.7344 36.8392 18.4146 36.5468C18.0949 36.2545 17.935 35.8719 17.935 35.3991C17.935 35.0062 18.0412 34.6636 18.2536 34.3713C18.4683 34.0766 18.7561 33.8482 19.117 33.686C19.4802 33.5216 19.8856 33.4393 20.3333 33.4393C20.7855 33.4393 21.1875 33.5204 21.5393 33.6826C21.891 33.8425 22.1697 34.0618 22.3752 34.3404C22.5831 34.6191 22.6927 34.9354 22.7042 35.2895H21.8819Z" fill="white"/>
<path d="M36.7066 41.5161C39.8149 41.5161 42.3346 38.9964 42.3346 35.8881C42.3346 32.7799 39.8149 30.2601 36.7066 30.2601C33.5984 30.2601 31.0786 32.7799 31.0786 35.8881C31.0786 38.9964 33.5984 41.5161 36.7066 41.5161Z" fill="white"/>
<path d="M182.943 33.5353L185.026 39.4419H185.108L187.191 33.5353H188.082L185.505 40.552H184.628L182.052 33.5353H182.943ZM189.175 40.552V33.5353H193.41V34.289H190.024V36.6599H193.19V37.4137H190.024V39.7983H193.464V40.552H189.175ZM194.941 40.552V33.5353H195.791V39.7983H199.052V40.552H194.941ZM206.015 37.0436C206.015 37.7837 205.881 38.4232 205.614 38.9623C205.347 39.5013 204.98 39.917 204.514 40.2094C204.049 40.5018 203.516 40.6479 202.918 40.6479C202.319 40.6479 201.787 40.5018 201.321 40.2094C200.855 39.917 200.489 39.5013 200.222 38.9623C199.954 38.4232 199.821 37.7837 199.821 37.0436C199.821 36.3036 199.954 35.664 200.222 35.125C200.489 34.586 200.855 34.1703 201.321 33.8779C201.787 33.5855 202.319 33.4393 202.918 33.4393C203.516 33.4393 204.049 33.5855 204.514 33.8779C204.98 34.1703 205.347 34.586 205.614 35.125C205.881 35.664 206.015 36.3036 206.015 37.0436ZM205.193 37.0436C205.193 36.4361 205.091 35.9233 204.888 35.5053C204.687 35.0873 204.414 34.771 204.069 34.5563C203.726 34.3416 203.343 34.2342 202.918 34.2342C202.493 34.2342 202.108 34.3416 201.763 34.5563C201.421 34.771 201.148 35.0873 200.944 35.5053C200.743 35.9233 200.643 36.4361 200.643 37.0436C200.643 37.6512 200.743 38.164 200.944 38.582C201.148 39 201.421 39.3163 201.763 39.531C202.108 39.7457 202.493 39.8531 202.918 39.8531C203.343 39.8531 203.726 39.7457 204.069 39.531C204.414 39.3163 204.687 39 204.888 38.582C205.091 38.164 205.193 37.6512 205.193 37.0436ZM210.157 40.552V33.5353H214.392V34.289H211.007V36.6599H214.173V37.4137H211.007V39.7983H214.447V40.552H210.157ZM215.924 33.5353H216.938L219.322 39.3597H219.404L221.789 33.5353H222.803V40.552H222.008V35.2209H221.94L219.747 40.552H218.98L216.787 35.2209H216.718V40.552H215.924V33.5353ZM225.357 33.5353V40.552H224.507V33.5353H225.357ZM230.897 35.2895C230.856 34.9423 230.69 34.6728 230.397 34.4809C230.105 34.289 229.746 34.1931 229.321 34.1931C229.011 34.1931 228.739 34.2433 228.506 34.3438C228.275 34.4443 228.095 34.5825 227.965 34.7584C227.837 34.9343 227.773 35.1341 227.773 35.358C227.773 35.5453 227.817 35.7063 227.906 35.8411C227.998 35.9735 228.114 36.0843 228.256 36.1734C228.397 36.2602 228.546 36.3321 228.701 36.3892C228.857 36.4441 228.999 36.4886 229.13 36.5229L229.842 36.7147C230.025 36.7627 230.228 36.8289 230.452 36.9134C230.678 36.998 230.894 37.1133 231.1 37.2595C231.307 37.4034 231.479 37.5884 231.613 37.8145C231.748 38.0406 231.816 38.3182 231.816 38.6471C231.816 39.0262 231.716 39.3688 231.518 39.6749C231.321 39.981 231.033 40.2242 230.654 40.4047C230.277 40.5851 229.819 40.6753 229.28 40.6753C228.778 40.6753 228.343 40.5943 227.975 40.4321C227.609 40.2699 227.322 40.0438 227.112 39.7537C226.904 39.4636 226.786 39.1267 226.759 38.743H227.636C227.659 39.008 227.748 39.2272 227.903 39.4008C228.061 39.5721 228.259 39.7 228.499 39.7845C228.741 39.8668 229.002 39.9079 229.28 39.9079C229.605 39.9079 229.896 39.8554 230.154 39.7503C230.412 39.6429 230.616 39.4945 230.767 39.3049C230.918 39.113 230.993 38.8892 230.993 38.6334C230.993 38.4004 230.928 38.2108 230.798 38.0646C230.668 37.9184 230.497 37.7997 230.284 37.7083C230.072 37.6169 229.842 37.537 229.595 37.4685L228.732 37.2218C228.184 37.0642 227.75 36.8392 227.43 36.5468C227.11 36.2545 226.951 35.8719 226.951 35.3991C226.951 35.0062 227.057 34.6636 227.269 34.3713C227.484 34.0766 227.772 33.8482 228.133 33.686C228.496 33.5216 228.901 33.4393 229.349 33.4393C229.801 33.4393 230.203 33.5204 230.555 33.6826C230.907 33.8425 231.185 34.0618 231.391 34.3404C231.599 34.6191 231.708 34.9354 231.72 35.2895H230.897ZM237.05 35.2895C237.009 34.9423 236.842 34.6728 236.55 34.4809C236.257 34.289 235.899 34.1931 235.474 34.1931C235.163 34.1931 234.891 34.2433 234.658 34.3438C234.428 34.4443 234.247 34.5825 234.117 34.7584C233.989 34.9343 233.925 35.1341 233.925 35.358C233.925 35.5453 233.97 35.7063 234.059 35.8411C234.15 35.9735 234.267 36.0843 234.408 36.1734C234.55 36.2602 234.698 36.3321 234.854 36.3892C235.009 36.4441 235.152 36.4886 235.282 36.5229L235.995 36.7147C236.177 36.7627 236.381 36.8289 236.605 36.9134C236.831 36.998 237.046 37.1133 237.252 37.2595C237.46 37.4034 237.631 37.5884 237.766 37.8145C237.901 38.0406 237.968 38.3182 237.968 38.6471C237.968 39.0262 237.869 39.3688 237.67 39.6749C237.474 39.981 237.186 40.2242 236.807 40.4047C236.43 40.5851 235.972 40.6753 235.433 40.6753C234.93 40.6753 234.495 40.5943 234.127 40.4321C233.762 40.2699 233.474 40.0438 233.264 39.7537C233.056 39.4636 232.939 39.1267 232.911 38.743H233.788C233.811 39.008 233.9 39.2272 234.055 39.4008C234.213 39.5721 234.412 39.7 234.652 39.7845C234.894 39.8668 235.154 39.9079 235.433 39.9079C235.757 39.9079 236.048 39.8554 236.306 39.7503C236.565 39.6429 236.769 39.4945 236.92 39.3049C237.07 39.113 237.146 38.8892 237.146 38.6334C237.146 38.4004 237.081 38.2108 236.951 38.0646C236.82 37.9184 236.649 37.7997 236.437 37.7083C236.224 37.6169 235.995 37.537 235.748 37.4685L234.885 37.2218C234.336 37.0642 233.902 36.8392 233.583 36.5468C233.263 36.2545 233.103 35.8719 233.103 35.3991C233.103 35.0062 233.209 34.6636 233.422 34.3713C233.636 34.0766 233.924 33.8482 234.285 33.686C234.648 33.5216 235.054 33.4393 235.501 33.4393C235.954 33.4393 236.356 33.5204 236.707 33.6826C237.059 33.8425 237.338 34.0618 237.543 34.3404C237.751 34.6191 237.861 34.9354 237.872 35.2895H237.05ZM240.215 33.5353V40.552H239.365V33.5353H240.215ZM247.839 37.0436C247.839 37.7837 247.705 38.4232 247.438 38.9623C247.171 39.5013 246.804 39.917 246.338 40.2094C245.872 40.5018 245.34 40.6479 244.742 40.6479C244.143 40.6479 243.611 40.5018 243.145 40.2094C242.679 39.917 242.312 39.5013 242.045 38.9623C241.778 38.4232 241.644 37.7837 241.644 37.0436C241.644 36.3036 241.778 35.664 242.045 35.125C242.312 34.586 242.679 34.1703 243.145 33.8779C243.611 33.5855 244.143 33.4393 244.742 33.4393C245.34 33.4393 245.872 33.5855 246.338 33.8779C246.804 34.1703 247.171 34.586 247.438 35.125C247.705 35.664 247.839 36.3036 247.839 37.0436ZM247.017 37.0436C247.017 36.4361 246.915 35.9233 246.712 35.5053C246.511 35.0873 246.238 34.771 245.893 34.5563C245.55 34.3416 245.166 34.2342 244.742 34.2342C244.317 34.2342 243.932 34.3416 243.587 34.5563C243.244 34.771 242.971 35.0873 242.768 35.5053C242.567 35.9233 242.467 36.4361 242.467 37.0436C242.467 37.6512 242.567 38.164 242.768 38.582C242.971 39 243.244 39.3163 243.587 39.531C243.932 39.7457 244.317 39.8531 244.742 39.8531C245.166 39.8531 245.55 39.7457 245.893 39.531C246.238 39.3163 246.511 39 246.712 38.582C246.915 38.164 247.017 37.6512 247.017 37.0436ZM254.832 33.5353V40.552H254.009L250.186 35.0428H250.117V40.552H249.268V33.5353H250.09L253.927 39.0582H253.996V33.5353H254.832ZM260.369 35.2895C260.328 34.9423 260.161 34.6728 259.869 34.4809C259.576 34.289 259.218 34.1931 258.793 34.1931C258.482 34.1931 258.211 34.2433 257.978 34.3438C257.747 34.4443 257.566 34.5825 257.436 34.7584C257.308 34.9343 257.244 35.1341 257.244 35.358C257.244 35.5453 257.289 35.7063 257.378 35.8411C257.469 35.9735 257.586 36.0843 257.728 36.1734C257.869 36.2602 258.018 36.3321 258.173 36.3892C258.328 36.4441 258.471 36.4886 258.601 36.5229L259.314 36.7147C259.497 36.7627 259.7 36.8289 259.924 36.9134C260.15 36.998 260.366 37.1133 260.571 37.2595C260.779 37.4034 260.95 37.5884 261.085 37.8145C261.22 38.0406 261.287 38.3182 261.287 38.6471C261.287 39.0262 261.188 39.3688 260.989 39.6749C260.793 39.981 260.505 40.2242 260.126 40.4047C259.749 40.5851 259.291 40.6753 258.752 40.6753C258.249 40.6753 257.814 40.5943 257.447 40.4321C257.081 40.2699 256.793 40.0438 256.583 39.7537C256.375 39.4636 256.258 39.1267 256.23 38.743H257.107C257.13 39.008 257.219 39.2272 257.375 39.4008C257.532 39.5721 257.731 39.7 257.971 39.7845C258.213 39.8668 258.473 39.9079 258.752 39.9079C259.076 39.9079 259.367 39.8554 259.626 39.7503C259.884 39.6429 260.088 39.4945 260.239 39.3049C260.39 39.113 260.465 38.8892 260.465 38.6334C260.465 38.4004 260.4 38.2108 260.27 38.0646C260.14 37.9184 259.968 37.7997 259.756 37.7083C259.543 37.6169 259.314 37.537 259.067 37.4685L258.204 37.2218C257.656 37.0642 257.222 36.8392 256.902 36.5468C256.582 36.2545 256.422 35.8719 256.422 35.3991C256.422 35.0062 256.528 34.6636 256.741 34.3713C256.955 34.0766 257.243 33.8482 257.604 33.686C257.967 33.5216 258.373 33.4393 258.82 33.4393C259.273 33.4393 259.675 33.5204 260.026 33.6826C260.378 33.8425 260.657 34.0618 260.862 34.3404C261.07 34.6191 261.18 34.9354 261.191 35.2895H260.369Z" fill="white"/>
<path d="M279.515 41.5161C282.623 41.5161 285.143 38.9964 285.143 35.8881C285.143 32.7799 282.623 30.2601 279.515 30.2601C276.406 30.2601 273.887 32.7799 273.887 35.8881C273.887 38.9964 276.406 41.5161 279.515 41.5161Z" fill="white"/>
<path d="M360.764 141.052V134.035H361.614V140.298H364.876V141.052H360.764ZM367.041 134.035V141.052H366.191V134.035H367.041ZM371.294 138.859H372.226L373.007 139.887L373.212 140.161L374.377 141.71H373.445L372.678 140.682L372.486 140.422L371.294 138.859ZM374.665 137.544C374.665 138.284 374.531 138.923 374.264 139.462C373.997 140.001 373.63 140.417 373.164 140.709C372.698 141.002 372.166 141.148 371.568 141.148C370.969 141.148 370.437 141.002 369.971 140.709C369.505 140.417 369.139 140.001 368.871 139.462C368.604 138.923 368.47 138.284 368.47 137.544C368.47 136.804 368.604 136.164 368.871 135.625C369.139 135.086 369.505 134.67 369.971 134.378C370.437 134.086 370.969 133.939 371.568 133.939C372.166 133.939 372.698 134.086 373.164 134.378C373.63 134.67 373.997 135.086 374.264 135.625C374.531 136.164 374.665 136.804 374.665 137.544ZM373.843 137.544C373.843 136.936 373.741 136.423 373.538 136.005C373.337 135.587 373.064 135.271 372.719 135.056C372.376 134.842 371.993 134.734 371.568 134.734C371.143 134.734 370.758 134.842 370.413 135.056C370.07 135.271 369.798 135.587 369.594 136.005C369.393 136.423 369.293 136.936 369.293 137.544C369.293 138.151 369.393 138.664 369.594 139.082C369.798 139.5 370.07 139.816 370.413 140.031C370.758 140.246 371.143 140.353 371.568 140.353C371.993 140.353 372.376 140.246 372.719 140.031C373.064 139.816 373.337 139.5 373.538 139.082C373.741 138.664 373.843 138.151 373.843 137.544ZM380.698 134.035H381.548V138.681C381.548 139.161 381.435 139.589 381.209 139.966C380.985 140.341 380.669 140.636 380.26 140.853C379.851 141.068 379.371 141.175 378.821 141.175C378.27 141.175 377.791 141.068 377.382 140.853C376.973 140.636 376.656 140.341 376.429 139.966C376.206 139.589 376.094 139.161 376.094 138.681V134.035H376.943V138.613C376.943 138.955 377.019 139.26 377.169 139.527C377.32 139.792 377.535 140.001 377.814 140.154C378.094 140.305 378.43 140.38 378.821 140.38C379.211 140.38 379.547 140.305 379.828 140.154C380.109 140.001 380.324 139.792 380.472 139.527C380.623 139.26 380.698 138.955 380.698 138.613V134.035ZM384.095 134.035V141.052H383.245V134.035H384.095ZM387.963 141.052H385.798V134.035H388.059C388.74 134.035 389.323 134.176 389.807 134.457C390.291 134.735 390.662 135.136 390.92 135.659C391.178 136.18 391.307 136.804 391.307 137.53C391.307 138.261 391.177 138.89 390.917 139.418C390.656 139.943 390.277 140.347 389.779 140.631C389.281 140.912 388.676 141.052 387.963 141.052ZM386.648 140.298H387.909C388.489 140.298 388.97 140.186 389.351 139.962C389.733 139.739 390.017 139.42 390.204 139.007C390.391 138.593 390.485 138.101 390.485 137.53C390.485 136.963 390.393 136.476 390.208 136.067C390.023 135.656 389.746 135.341 389.378 135.121C389.011 134.9 388.553 134.789 388.005 134.789H386.648V140.298ZM393.582 134.035V141.052H392.733V134.035H393.582ZM394.902 134.789V134.035H400.165V134.789H397.958V141.052H397.109V134.789H394.902ZM400.873 134.035H401.846L403.792 137.311H403.874L405.82 134.035H406.794L404.258 138.16V141.052H403.408V138.16L400.873 134.035Z" fill="white"/>
<path d="M343.031 142.82C346.139 142.82 348.659 140.3 348.659 137.192C348.659 134.084 346.139 131.564 343.031 131.564C339.923 131.564 337.403 134.084 337.403 137.192C337.403 140.3 339.923 142.82 343.031 142.82Z" fill="white"/>
<path d="M333.474 2.98327V10H332.624V2.98327H333.474ZM340.741 2.98327V10H339.919L336.096 4.49077H336.027V10H335.177V2.98327H336L339.837 8.5062H339.905V2.98327H340.741ZM348.088 5.176H347.238C347.188 4.9316 347.1 4.7169 346.974 4.53189C346.851 4.34687 346.7 4.19156 346.522 4.06593C346.346 3.93802 346.151 3.84209 345.936 3.77814C345.722 3.71418 345.498 3.6822 345.265 3.6822C344.84 3.6822 344.455 3.78956 344.11 4.00426C343.768 4.21897 343.495 4.53531 343.291 4.9533C343.09 5.37129 342.99 5.88407 342.99 6.49164C342.99 7.0992 343.09 7.61198 343.291 8.02997C343.495 8.44796 343.768 8.76431 344.11 8.97901C344.455 9.19372 344.84 9.30107 345.265 9.30107C345.498 9.30107 345.722 9.26909 345.936 9.20514C346.151 9.14118 346.346 9.04639 346.522 8.92077C346.7 8.79286 346.851 8.6364 346.974 8.45139C347.1 8.26409 347.188 8.04939 347.238 7.80727H348.088C348.024 8.16587 347.908 8.48679 347.738 8.77002C347.569 9.05324 347.359 9.29422 347.108 9.49293C346.857 9.68936 346.575 9.83897 346.262 9.94176C345.951 10.0445 345.619 10.0959 345.265 10.0959C344.666 10.0959 344.134 9.94975 343.668 9.65739C343.202 9.36502 342.836 8.94932 342.568 8.41027C342.301 7.87123 342.168 7.23168 342.168 6.49164C342.168 5.75159 342.301 5.11205 342.568 4.573C342.836 4.03395 343.202 3.61825 343.668 3.32589C344.134 3.03352 344.666 2.88734 345.265 2.88734C345.619 2.88734 345.951 2.93873 346.262 3.04152C346.575 3.1443 346.857 3.29505 347.108 3.49377C347.359 3.6902 347.569 3.93003 347.738 4.21326C347.908 4.4942 348.024 4.81511 348.088 5.176ZM349.461 10V2.98327H353.696V3.73702H350.311V6.10791H353.476V6.86166H350.311V9.24625H353.751V10H349.461ZM360.791 2.98327V10H359.969L356.145 4.49077H356.077V10H355.227V2.98327H356.049L359.887 8.5062H359.955V2.98327H360.791ZM362.108 3.73702V2.98327H367.37V3.73702H365.164V10H364.314V3.73702H362.108ZM369.531 2.98327V10H368.682V2.98327H369.531ZM371.523 2.98327L373.606 8.88993H373.688L375.771 2.98327H376.662L374.085 10H373.208L370.632 2.98327H371.523ZM377.755 10V2.98327H381.99V3.73702H378.605V6.10791H381.77V6.86166H378.605V9.24625H382.044V10H377.755ZM387.358 4.73745C387.317 4.39027 387.15 4.12075 386.858 3.92889C386.566 3.73702 386.207 3.64109 385.782 3.64109C385.472 3.64109 385.2 3.69134 384.967 3.79184C384.736 3.89234 384.556 4.03053 384.426 4.2064C384.298 4.38228 384.234 4.58214 384.234 4.80598C384.234 4.99327 384.278 5.1543 384.367 5.28906C384.459 5.42154 384.575 5.53232 384.717 5.6214C384.858 5.70819 385.007 5.78014 385.162 5.83724C385.318 5.89206 385.46 5.9366 385.59 5.97086L386.303 6.16273C386.486 6.21069 386.689 6.27693 386.913 6.36144C387.139 6.44595 387.355 6.5613 387.56 6.70748C387.768 6.85138 387.94 7.03639 388.074 7.26252C388.209 7.48864 388.277 7.76616 388.277 8.09507C388.277 8.47423 388.177 8.81684 387.978 9.12291C387.782 9.42898 387.494 9.67223 387.115 9.85268C386.738 10.0331 386.28 10.1233 385.741 10.1233C385.239 10.1233 384.804 10.0423 384.436 9.88009C384.07 9.71791 383.783 9.49179 383.572 9.20171C383.365 8.91163 383.247 8.57473 383.22 8.191H384.097C384.12 8.45595 384.209 8.67523 384.364 8.84882C384.522 9.02012 384.72 9.14803 384.96 9.23255C385.202 9.31477 385.463 9.35589 385.741 9.35589C386.066 9.35589 386.357 9.30335 386.615 9.19828C386.873 9.09093 387.077 8.94247 387.228 8.75289C387.379 8.56102 387.454 8.33718 387.454 8.08136C387.454 7.84839 387.389 7.65881 387.259 7.51262C387.129 7.36644 386.957 7.24767 386.745 7.15631C386.533 7.06494 386.303 6.985 386.056 6.91648L385.193 6.6698C384.645 6.51219 384.211 6.28721 383.891 5.99485C383.571 5.70248 383.411 5.3199 383.411 4.84709C383.411 4.45423 383.518 4.11161 383.73 3.81925C383.945 3.5246 384.233 3.29619 384.593 3.13402C384.957 2.96957 385.362 2.88734 385.81 2.88734C386.262 2.88734 386.664 2.96843 387.016 3.1306C387.367 3.29048 387.646 3.50975 387.852 3.78841C388.06 4.06707 388.169 4.38342 388.181 4.73745H387.358Z" fill="white"/>
<path d="M318.911 11.7681C322.019 11.7681 324.539 9.24834 324.539 6.14009C324.539 3.03183 322.019 0.512085 318.911 0.512085C315.802 0.512085 313.283 3.03183 313.283 6.14009C313.283 9.24834 315.802 11.7681 318.911 11.7681Z" fill="white"/>
</svg>
