<svg width="659" height="659" viewBox="0 0 659 659" fill="none" xmlns="http://www.w3.org/2000/svg">
<path d="M215.286 450.005C282.48 450.005 336.951 395.533 336.951 328.339C336.951 261.145 282.48 206.674 215.286 206.674C148.092 206.674 93.6204 261.145 93.6204 328.339C93.6204 395.533 148.092 450.005 215.286 450.005Z" stroke="#EE8E00" stroke-width="2" stroke-miterlimit="10"/>
<path d="M446.847 206.674H209.894C147.057 206.674 96.1167 257.614 96.1167 320.451V336.24C96.1167 399.077 147.057 450.017 209.894 450.017H446.847C509.684 450.017 560.624 399.077 560.624 336.24V320.451C560.624 257.614 509.684 206.674 446.847 206.674Z" stroke="#EE8E00" stroke-width="2" stroke-miterlimit="10"/>
<path d="M510.334 210.72H509.227V203.389H510.334V210.72ZM513.073 210.72H512.031V203.389H513.035L516.602 208.835H516.634V203.389H517.681V210.72H516.677L513.105 205.263H513.073V210.72ZM520.195 206.612V207.535C520.195 209.055 520.856 209.904 522.032 209.904C523.02 209.904 523.681 209.297 523.702 208.416H524.782V208.475C524.782 209.866 523.616 210.871 522.026 210.871C520.168 210.871 519.083 209.619 519.083 207.535V206.612C519.083 204.506 520.168 203.239 522.026 203.239C523.622 203.239 524.782 204.281 524.782 205.747V205.801H523.702C523.681 204.861 523.02 204.205 522.032 204.205C520.856 204.205 520.195 205.07 520.195 206.612ZM530.636 209.77V210.72H526.135V203.389H530.636V204.34H527.236V206.531H530.443V207.444H527.236V209.77H530.636ZM533.129 210.72H532.087V203.389H533.091L536.657 208.835H536.69V203.389H537.737V210.72H536.733L533.161 205.263H533.129V210.72ZM541.964 210.72H540.868V204.35H538.682V203.389H544.15V204.35H541.964V210.72ZM546.341 210.72H545.235V203.389H546.341V210.72ZM551.149 210.72H549.929L547.351 203.389H548.619L550.536 209.372H550.579L552.481 203.389H553.721L551.149 210.72ZM559.286 209.77V210.72H554.785V203.389H559.286V204.34H555.886V206.531H559.092V207.444H555.886V209.77H559.286ZM560.21 208.706H561.3C561.364 209.372 561.939 209.936 563.013 209.936C563.991 209.936 564.592 209.469 564.592 208.733C564.592 208.153 564.216 207.836 563.416 207.637L562.181 207.326C561.268 207.1 560.419 206.542 560.419 205.371C560.419 203.98 561.644 203.222 563.024 203.222C564.378 203.222 565.591 203.948 565.618 205.339H564.549C564.49 204.683 563.985 204.152 563.008 204.152C562.138 204.152 561.531 204.565 561.531 205.29C561.531 205.784 561.864 206.144 562.557 206.311L563.781 206.622C564.893 206.902 565.71 207.423 565.71 208.642C565.71 210.081 564.523 210.871 562.917 210.871C560.919 210.871 560.236 209.684 560.21 208.706Z" fill="white"/>
<path d="M578.56 361.743V362.715H574.166V355.383H575.273V361.743H578.56ZM580.644 362.715H579.537V355.383H580.644V362.715ZM582.051 359.562V358.542C582.051 356.463 583.227 355.233 585.048 355.233C586.874 355.233 588.056 356.468 588.056 358.542V359.562C588.056 360.69 587.707 361.56 587.1 362.124L588.083 363.51H586.901L586.267 362.629C585.913 362.779 585.499 362.865 585.048 362.865C583.227 362.865 582.051 361.641 582.051 359.562ZM583.147 358.542V359.567C583.147 361.157 583.963 361.931 585.037 361.941C585.279 361.941 585.499 361.898 585.698 361.812L584.758 360.507H585.907L586.466 361.254C586.772 360.873 586.96 360.314 586.96 359.567V358.542C586.96 356.968 586.138 356.194 585.048 356.194C583.968 356.194 583.147 356.968 583.147 358.542ZM590.484 355.383V360.115C590.484 361.216 591.171 361.893 592.224 361.893C593.276 361.893 593.969 361.211 593.969 360.115V355.383H595.065V360.266C595.065 361.791 594.002 362.865 592.224 362.865C590.451 362.865 589.388 361.791 589.388 360.266V355.383H590.484ZM597.788 362.715H596.682V355.383H597.788V362.715ZM599.485 355.383H601.94C604.105 355.383 605.184 356.662 605.184 359.041C605.184 361.42 604.099 362.715 601.94 362.715H599.485V355.383ZM600.592 356.334V361.764H601.843C603.267 361.764 604.04 360.948 604.04 359.052C604.04 357.295 603.363 356.334 601.843 356.334H600.592ZM607.596 362.715H606.489V355.383H607.596V362.715ZM611.963 362.715H610.867V356.345H608.681V355.383H614.149V356.345H611.963V362.715ZM618.134 362.715H617.038V359.68L614.584 355.383H615.83L617.575 358.59H617.613L619.364 355.383H620.589L618.134 359.664V362.715Z" fill="white"/>
<path d="M62.9551 282H61.8486V274.668H66.2905V275.625H62.9551V277.972H66.0112V278.917H62.9551V282ZM71.9463 281.049V282H67.4453V274.668H71.9463V275.619H68.5464V277.811H71.7529V278.724H68.5464V281.049H71.9463ZM77.8975 281.049V282H73.3965V274.668H77.8975V275.619H74.4976V277.811H77.7041V278.724H74.4976V281.049H77.8975ZM78.8213 279.986H79.9116C79.9761 280.652 80.5508 281.216 81.625 281.216C82.6025 281.216 83.2041 280.749 83.2041 280.013C83.2041 279.433 82.8281 279.116 82.0278 278.917L80.7925 278.605C79.8794 278.38 79.0308 277.821 79.0308 276.65C79.0308 275.259 80.2554 274.502 81.6357 274.502C82.9893 274.502 84.2031 275.227 84.23 276.618H83.1611C83.1021 275.963 82.5972 275.431 81.6196 275.431C80.7495 275.431 80.1426 275.845 80.1426 276.57C80.1426 277.064 80.4756 277.424 81.1685 277.59L82.3931 277.902C83.5049 278.181 84.3213 278.702 84.3213 279.921C84.3213 281.361 83.1343 282.15 81.5283 282.15C79.5303 282.15 78.8481 280.963 78.8213 279.986Z" fill="white"/>
<path d="M59.2422 433.028V434H54.8486V426.668H55.9551V433.028H59.2422ZM60.9556 429.843V430.885C60.9556 432.453 61.772 433.189 62.8462 433.189C63.9258 433.189 64.7368 432.453 64.7368 430.885V429.843C64.7368 428.28 63.9258 427.479 62.8462 427.479C61.772 427.479 60.9556 428.28 60.9556 429.843ZM59.8384 430.885V429.854C59.8384 427.77 61.02 426.518 62.8569 426.518C64.6938 426.518 65.854 427.77 65.854 429.854V430.885C65.854 432.958 64.6777 434.15 62.8354 434.15C60.9985 434.15 59.8384 432.958 59.8384 430.885ZM69.4634 434H68.459L66.4663 426.668H67.6694L68.9961 432.238H69.0337L70.4355 426.668H71.4937L72.8901 432.238H72.9277L74.2544 426.668H75.4575L73.4648 434H72.4658L70.9834 428.468H70.9458L69.4634 434ZM78.0303 431.986H79.1206C79.1851 432.652 79.7598 433.216 80.834 433.216C81.8115 433.216 82.4131 432.749 82.4131 432.013C82.4131 431.433 82.0371 431.116 81.2368 430.917L80.0015 430.605C79.0884 430.38 78.2397 429.821 78.2397 428.65C78.2397 427.259 79.4644 426.502 80.8447 426.502C82.1982 426.502 83.4121 427.227 83.439 428.618H82.3701C82.311 427.963 81.8062 427.431 80.8286 427.431C79.9585 427.431 79.3516 427.845 79.3516 428.57C79.3516 429.064 79.6846 429.424 80.3774 429.59L81.6021 429.902C82.7139 430.181 83.5303 430.702 83.5303 431.921C83.5303 433.361 82.3433 434.15 80.7373 434.15C78.7393 434.15 78.0571 432.963 78.0303 431.986ZM89.2451 433.028V434H84.8516V426.668H85.958V433.028H89.2451ZM91.3291 434H90.2227V426.668H91.3291V434ZM93.0264 426.668H95.7817C97.2373 426.668 98.1611 427.635 98.1611 429.005C98.1611 430.385 97.2319 431.331 95.7764 431.331H94.1274V434H93.0264V426.668ZM94.1274 427.608V430.401H95.1587C96.335 430.401 97.0278 430.138 97.0278 429.005C97.0278 428.113 96.5176 427.608 95.6421 427.608H94.1274ZM99.2891 426.668H102.044C103.5 426.668 104.424 427.635 104.424 429.005C104.424 430.385 103.495 431.331 102.039 431.331H100.39V434H99.2891V426.668ZM100.39 427.608V430.401H101.421C102.598 430.401 103.291 430.138 103.291 429.005C103.291 428.113 102.78 427.608 101.905 427.608H100.39ZM105.734 434H104.596L107.152 426.668H108.355L110.912 434H109.741L109.054 431.9H106.422L105.734 434ZM107.759 427.872H107.722L106.685 431.041H108.791L107.759 427.872ZM117.234 428.94H116.144C116.036 428.043 115.413 427.485 114.441 427.485C113.259 427.485 112.572 428.323 112.572 429.762V430.804C112.572 432.297 113.211 433.189 114.479 433.189C115.504 433.189 116.181 432.555 116.181 431.669V431.041H114.414V430.138H117.25V431.631C117.25 433.039 116.149 434.15 114.462 434.15C112.48 434.15 111.465 432.888 111.465 430.804V429.757C111.465 427.77 112.572 426.518 114.446 426.518C116.09 426.518 117.148 427.533 117.234 428.94ZM123.158 433.049V434H118.657V426.668H123.158V427.619H119.758V429.811H122.965V430.724H119.758V433.049H123.158Z" fill="white"/>
<path d="M558.315 371.237C564.271 371.237 569.099 366.409 569.099 360.453C569.099 354.497 564.271 349.669 558.315 349.669C552.36 349.669 547.532 354.497 547.532 360.453C547.532 366.409 552.36 371.237 558.315 371.237Z" fill="white"/>
<path d="M492.94 228.141C498.895 228.141 503.723 223.313 503.723 217.358C503.723 211.402 498.895 206.574 492.94 206.574C486.984 206.574 482.156 211.402 482.156 217.358C482.156 223.313 486.984 228.141 492.94 228.141Z" fill="white"/>
<path d="M102.17 293.38C108.126 293.38 112.954 288.552 112.954 282.596C112.954 276.64 108.126 271.812 102.17 271.812C96.2142 271.812 91.3862 276.64 91.3862 282.596C91.3862 288.552 96.2142 293.38 102.17 293.38Z" fill="white"/>
<path d="M139.601 435.364C145.556 435.364 150.384 430.536 150.384 424.581C150.384 418.625 145.556 413.797 139.601 413.797C133.645 413.797 128.817 418.625 128.817 424.581C128.817 430.536 133.645 435.364 139.601 435.364Z" fill="white"/>
<path d="M417.192 462.049C423.844 462.049 429.236 456.657 429.236 450.005C429.236 443.353 423.844 437.96 417.192 437.96C410.54 437.96 405.148 443.353 405.148 450.005C405.148 456.657 410.54 462.049 417.192 462.049Z" fill="#EE8E00"/>
<path fill-rule="evenodd" clip-rule="evenodd" d="M414.072 454.136C413.972 454.225 413.895 454.336 413.847 454.46C413.793 454.582 413.763 454.714 413.76 454.847C413.759 454.98 413.784 455.111 413.835 455.234C413.886 455.361 413.962 455.475 414.059 455.571C414.152 455.663 414.262 455.735 414.384 455.783C414.507 455.832 414.638 455.858 414.771 455.858C414.907 455.859 415.043 455.833 415.17 455.783C415.286 455.72 415.394 455.645 415.495 455.559L420.325 450.716C420.419 450.624 420.493 450.515 420.544 450.394C420.595 450.272 420.622 450.142 420.622 450.011C420.622 449.88 420.595 449.749 420.544 449.628C420.493 449.507 420.419 449.398 420.325 449.306L417.903 446.884L415.495 444.463C415.398 444.373 415.288 444.297 415.17 444.238C415.043 444.189 414.907 444.163 414.771 444.164C414.638 444.164 414.507 444.19 414.384 444.238C414.262 444.287 414.152 444.359 414.059 444.451C413.962 444.546 413.886 444.661 413.835 444.788C413.784 444.91 413.759 445.042 413.76 445.175C413.763 445.308 413.793 445.439 413.847 445.561C413.895 445.686 413.972 445.797 414.072 445.886L418.19 450.005L414.072 454.136Z" fill="white"/>
<path d="M262.427 187.828H168.07C165.684 187.764 163.31 188.18 161.087 189.049C158.864 189.919 156.838 191.225 155.128 192.89C153.418 194.556 152.059 196.546 151.131 198.746C150.203 200.945 149.725 203.307 149.725 205.694C149.725 208.081 150.203 210.444 151.131 212.643C152.059 214.842 153.418 216.833 155.128 218.498C156.838 220.163 158.864 221.469 161.087 222.339C163.31 223.208 165.684 223.624 168.07 223.561H262.427C264.813 223.624 267.187 223.208 269.41 222.339C271.633 221.469 273.659 220.163 275.369 218.498C277.079 216.833 278.438 214.842 279.366 212.643C280.294 210.444 280.772 208.081 280.772 205.694C280.772 203.307 280.294 200.945 279.366 198.746C278.438 196.546 277.079 194.556 275.369 192.89C273.659 191.225 271.633 189.919 269.41 189.049C267.187 188.18 264.813 187.764 262.427 187.828Z" fill="white"/>
<path d="M128.006 357.894H67.8719C61.544 357.894 56.4268 365.096 56.4268 373.995C56.4268 382.894 61.544 390.083 67.8719 390.083H128.006C134.334 390.083 139.463 382.881 139.463 373.995C139.463 365.108 134.334 357.894 128.006 357.894Z" fill="white"/>
<path d="M258.358 431.67H215.211C210.668 431.67 206.986 438.572 206.986 447.084C206.986 455.596 210.668 462.511 215.211 462.511H258.358C262.901 462.511 266.57 455.609 266.57 447.084C266.57 438.559 262.926 431.67 258.358 431.67Z" fill="white"/>
<path d="M576.475 259.307H507.979C500.765 259.307 494.924 265.809 494.924 273.834C494.924 281.86 500.715 288.313 507.979 288.313H576.525C583.727 288.313 589.58 281.81 589.58 273.785C589.58 265.759 583.677 259.307 576.475 259.307Z" fill="white"/>
<path d="M179.782 208L178.015 202.854H179.06L180.31 206.901H180.344L181.691 202.854H182.692L180.866 208H179.782ZM185.407 208.088C184.045 208.088 183.19 207.16 183.19 205.661V205.119C183.19 203.708 184.011 202.766 185.368 202.766C186.73 202.766 187.536 203.732 187.536 205.168V205.656H184.172V205.764C184.172 206.677 184.65 207.292 185.427 207.292C185.993 207.292 186.374 207.009 186.521 206.55H187.473C187.302 207.39 186.628 208.088 185.407 208.088ZM184.172 204.934H186.564V204.919C186.564 204.152 186.091 203.552 185.373 203.552C184.641 203.552 184.172 204.157 184.172 204.919V204.934ZM189.724 208H188.82V201.335H189.816L191.926 206.208H191.95L194.055 201.335H195.051V208H194.143V203.298H194.104L192.316 207.351H191.55L189.758 203.298H189.724V208ZM200.705 207.136V208H196.613V201.335H200.705V202.199H197.614V204.191H200.529V205.021H197.614V207.136H200.705ZM206.999 203.4H206.008C205.91 202.585 205.344 202.077 204.46 202.077C203.386 202.077 202.761 202.839 202.761 204.147V205.095C202.761 206.452 203.342 207.263 204.494 207.263C205.427 207.263 206.042 206.687 206.042 205.881V205.31H204.436V204.489H207.014V205.847C207.014 207.126 206.013 208.137 204.479 208.137C202.678 208.137 201.755 206.989 201.755 205.095V204.143C201.755 202.336 202.761 201.198 204.465 201.198C205.959 201.198 206.921 202.121 206.999 203.4ZM208.664 208H207.629L209.953 201.335H211.047L213.371 208H212.307L211.682 206.091H209.289L208.664 208ZM210.505 202.429H210.471L209.528 205.31H211.442L210.505 202.429ZM218.991 208H217.883L215.539 201.335H216.691L218.435 206.774H218.474L220.202 201.335H221.33L218.991 208ZM222.761 204.221V205.168C222.761 206.594 223.503 207.263 224.479 207.263C225.461 207.263 226.198 206.594 226.198 205.168V204.221C226.198 202.8 225.461 202.072 224.479 202.072C223.503 202.072 222.761 202.8 222.761 204.221ZM221.745 205.168V204.23C221.745 202.336 222.819 201.198 224.489 201.198C226.159 201.198 227.214 202.336 227.214 204.23V205.168C227.214 207.053 226.145 208.137 224.47 208.137C222.8 208.137 221.745 207.053 221.745 205.168ZM230.661 208H229.665V202.209H227.678V201.335H232.648V202.209H230.661V208ZM237.6 207.136V208H233.508V201.335H237.6V202.199H234.509V204.191H237.424V205.021H234.509V207.136H237.6ZM241.408 201.335C242.922 201.335 243.615 202.272 243.615 203.361C243.615 204.455 242.941 205.017 242.385 205.222L243.737 208H242.6L241.389 205.402H239.914V208H238.918V201.335H241.408ZM239.914 204.577H241.242C242.111 204.577 242.575 204.157 242.575 203.405C242.575 202.595 242.053 202.18 241.271 202.18H239.914V204.577ZM244.436 206.169H245.427C245.485 206.774 246.008 207.287 246.984 207.287C247.873 207.287 248.42 206.862 248.42 206.193C248.42 205.666 248.078 205.378 247.351 205.197L246.228 204.914C245.397 204.709 244.626 204.201 244.626 203.137C244.626 201.872 245.739 201.184 246.994 201.184C248.225 201.184 249.328 201.843 249.353 203.107H248.381C248.327 202.512 247.868 202.028 246.979 202.028C246.188 202.028 245.637 202.404 245.637 203.063C245.637 203.513 245.939 203.84 246.569 203.991L247.683 204.274C248.693 204.528 249.436 205.002 249.436 206.11C249.436 207.419 248.356 208.137 246.896 208.137C245.08 208.137 244.46 207.058 244.436 206.169Z" fill="black"/>
<path d="M80.7642 376H79.8677V370.788H78.0791V370.001H82.5527V370.788H80.7642V376ZM85.5674 370.001C86.9297 370.001 87.5537 370.845 87.5537 371.825C87.5537 372.81 86.9473 373.315 86.4463 373.5L87.6636 376H86.6396L85.5498 373.662H84.2227V376H83.3262V370.001H85.5674ZM84.2227 372.919H85.418C86.2002 372.919 86.6177 372.542 86.6177 371.865C86.6177 371.135 86.1475 370.762 85.4443 370.762H84.2227V372.919ZM89.0566 376H88.125L90.2168 370.001H91.2012L93.293 376H92.335L91.7725 374.282H89.6191L89.0566 376ZM90.7134 370.986H90.6826L89.8345 373.579H91.5571L90.7134 370.986ZM94.084 370.001H96.0923C97.8633 370.001 98.7466 371.047 98.7466 372.994C98.7466 374.941 97.8589 376 96.0923 376H94.084V370.001ZM94.9893 370.779V375.222H96.0132C97.1777 375.222 97.8105 374.554 97.8105 373.003C97.8105 371.566 97.2568 370.779 96.0132 370.779H94.9893ZM103.497 375.222V376H99.8145V370.001H103.497V370.779H100.715V372.572H103.339V373.319H100.715V375.222H103.497ZM106.925 370.001C108.287 370.001 108.911 370.845 108.911 371.825C108.911 372.81 108.305 373.315 107.804 373.5L109.021 376H107.997L106.907 373.662H105.58V376H104.684V370.001H106.925ZM105.58 372.919H106.775C107.558 372.919 107.975 372.542 107.975 371.865C107.975 371.135 107.505 370.762 106.802 370.762H105.58V372.919ZM109.649 374.352H110.542C110.594 374.897 111.064 375.358 111.943 375.358C112.743 375.358 113.235 374.976 113.235 374.374C113.235 373.899 112.928 373.64 112.273 373.478L111.262 373.223C110.515 373.038 109.821 372.581 109.821 371.623C109.821 370.485 110.823 369.865 111.952 369.865C113.06 369.865 114.053 370.458 114.075 371.597H113.2C113.152 371.061 112.739 370.625 111.939 370.625C111.227 370.625 110.73 370.964 110.73 371.557C110.73 371.961 111.003 372.256 111.57 372.392L112.572 372.647C113.481 372.875 114.149 373.302 114.149 374.299C114.149 375.477 113.178 376.123 111.864 376.123C110.229 376.123 109.671 375.152 109.649 374.352Z" fill="black"/>
<path d="M232.289 449.205V450H228.694V444.001H229.6V449.205H232.289ZM233.089 444.001H235.343C236.534 444.001 237.29 444.792 237.29 445.913C237.29 447.042 236.53 447.816 235.339 447.816H233.99V450H233.089V444.001ZM233.99 444.771V447.056H234.833C235.796 447.056 236.363 446.84 236.363 445.913C236.363 445.184 235.945 444.771 235.229 444.771H233.99ZM238.828 445.97H238.143L238.608 444.001H239.5L238.828 445.97ZM239.782 446.708C239.782 445.715 240.625 445.289 241.544 445.289C242.638 445.289 243.231 445.887 243.231 446.687H242.423C242.396 446.353 242.186 445.97 241.518 445.97C241.003 445.97 240.639 446.203 240.639 446.621C240.639 447.122 241.271 447.218 241.799 447.315C242.665 447.469 243.359 447.724 243.359 448.611C243.359 449.543 242.616 450.079 241.478 450.079C240.401 450.079 239.698 449.565 239.698 448.734H240.564C240.621 449.13 240.964 449.394 241.54 449.394C242.194 449.394 242.493 449.086 242.493 448.721C242.493 448.225 241.961 448.132 241.333 448.009C240.48 447.833 239.782 447.552 239.782 446.708Z" fill="black"/>
<path d="M518.694 270.001H520.949C522.14 270.001 522.896 270.792 522.896 271.913C522.896 273.042 522.135 273.816 520.944 273.816H519.595V276H518.694V270.001ZM519.595 270.771V273.056H520.439C521.401 273.056 521.968 272.84 521.968 271.913C521.968 271.184 521.551 270.771 520.834 270.771H519.595ZM526.06 270.001C527.422 270.001 528.046 270.845 528.046 271.825C528.046 272.81 527.439 273.315 526.938 273.5L528.156 276H527.132L526.042 273.662H524.715V276H523.818V270.001H526.06ZM524.715 272.919H525.91C526.692 272.919 527.11 272.542 527.11 271.865C527.11 271.135 526.64 270.762 525.937 270.762H524.715V272.919ZM529.887 272.599V273.451C529.887 274.734 530.555 275.336 531.434 275.336C532.317 275.336 532.981 274.734 532.981 273.451V272.599C532.981 271.32 532.317 270.665 531.434 270.665C530.555 270.665 529.887 271.32 529.887 272.599ZM528.973 273.451V272.607C528.973 270.902 529.94 269.878 531.443 269.878C532.946 269.878 533.895 270.902 533.895 272.607V273.451C533.895 275.147 532.933 276.123 531.425 276.123C529.922 276.123 528.973 275.147 528.973 273.451ZM536.998 276H536.101V270.788H534.312V270.001H538.786V270.788H536.998V276ZM540.118 272.599V273.451C540.118 274.734 540.786 275.336 541.665 275.336C542.548 275.336 543.211 274.734 543.211 273.451V272.599C543.211 271.32 542.548 270.665 541.665 270.665C540.786 270.665 540.118 271.32 540.118 272.599ZM539.204 273.451V272.607C539.204 270.902 540.17 269.878 541.673 269.878C543.176 269.878 544.125 270.902 544.125 272.607V273.451C544.125 275.147 543.163 276.123 541.656 276.123C540.153 276.123 539.204 275.147 539.204 273.451ZM545.94 272.638V273.394C545.94 274.638 546.481 275.332 547.443 275.332C548.252 275.332 548.792 274.835 548.81 274.115H549.693V274.163C549.693 275.301 548.74 276.123 547.439 276.123C545.918 276.123 545.031 275.099 545.031 273.394V272.638C545.031 270.916 545.918 269.878 547.439 269.878C548.744 269.878 549.693 270.731 549.693 271.931V271.975H548.81C548.792 271.206 548.252 270.669 547.443 270.669C546.481 270.669 545.94 271.377 545.94 272.638ZM551.473 272.599V273.451C551.473 274.734 552.141 275.336 553.02 275.336C553.903 275.336 554.567 274.734 554.567 273.451V272.599C554.567 271.32 553.903 270.665 553.02 270.665C552.141 270.665 551.473 271.32 551.473 272.599ZM550.559 273.451V272.607C550.559 270.902 551.526 269.878 553.029 269.878C554.532 269.878 555.481 270.902 555.481 272.607V273.451C555.481 275.147 554.519 276.123 553.011 276.123C551.508 276.123 550.559 275.147 550.559 273.451ZM560.223 275.205V276H556.628V270.001H557.533V275.205H560.223ZM560.592 274.352H561.484C561.537 274.897 562.007 275.358 562.886 275.358C563.686 275.358 564.178 274.976 564.178 274.374C564.178 273.899 563.87 273.64 563.215 273.478L562.205 273.223C561.458 273.038 560.763 272.581 560.763 271.623C560.763 270.485 561.765 269.865 562.895 269.865C564.002 269.865 564.995 270.458 565.017 271.597H564.143C564.094 271.061 563.681 270.625 562.881 270.625C562.169 270.625 561.673 270.964 561.673 271.557C561.673 271.961 561.945 272.256 562.512 272.392L563.514 272.647C564.424 272.875 565.092 273.302 565.092 274.299C565.092 275.477 564.121 276.123 562.807 276.123C561.172 276.123 560.614 275.152 560.592 274.352Z" fill="black"/>
<path d="M341.864 266H340.87V258.668H341.966L344.286 264.029H344.313L346.628 258.668H347.724V266H346.725V260.828H346.682L344.716 265.286H343.873L341.901 260.828H341.864V266ZM353.943 265.049V266H349.442V258.668H353.943V259.619H350.543V261.811H353.75V262.724H350.543V265.049H353.943ZM360.867 260.94H359.776C359.669 260.043 359.046 259.485 358.074 259.485C356.892 259.485 356.205 260.323 356.205 261.762V262.804C356.205 264.297 356.844 265.189 358.111 265.189C359.137 265.189 359.814 264.555 359.814 263.669V263.041H358.047V262.138H360.883V263.631C360.883 265.039 359.782 266.15 358.095 266.15C356.113 266.15 355.098 264.888 355.098 262.804V261.757C355.098 259.77 356.205 258.518 358.079 258.518C359.723 258.518 360.781 259.533 360.867 260.94ZM362.698 266H361.56L364.116 258.668H365.319L367.876 266H366.705L366.018 263.9H363.386L362.698 266ZM364.723 259.872H364.686L363.649 263.041H365.754L364.723 259.872ZM375.535 265.049V266H371.034V258.668H375.535V259.619H372.135V261.811H375.342V262.724H372.135V265.049H375.535ZM378 266H377.007V258.668H378.103L380.423 264.029H380.45L382.765 258.668H383.86V266H382.861V260.828H382.818L380.853 265.286H380.009L378.038 260.828H378V266ZM386.686 266H385.579V258.668H386.686V266ZM387.856 263.986H388.947C389.011 264.652 389.586 265.216 390.66 265.216C391.638 265.216 392.239 264.749 392.239 264.013C392.239 263.433 391.863 263.116 391.063 262.917L389.828 262.605C388.915 262.38 388.066 261.821 388.066 260.65C388.066 259.259 389.291 258.502 390.671 258.502C392.024 258.502 393.238 259.227 393.265 260.618H392.196C392.137 259.963 391.632 259.431 390.655 259.431C389.785 259.431 389.178 259.845 389.178 260.57C389.178 261.064 389.511 261.424 390.204 261.59L391.428 261.902C392.54 262.181 393.356 262.702 393.356 263.921C393.356 265.361 392.169 266.15 390.563 266.15C388.565 266.15 387.883 264.963 387.856 263.986ZM394.151 263.986H395.242C395.306 264.652 395.881 265.216 396.955 265.216C397.933 265.216 398.534 264.749 398.534 264.013C398.534 263.433 398.158 263.116 397.358 262.917L396.123 262.605C395.209 262.38 394.361 261.821 394.361 260.65C394.361 259.259 395.585 258.502 396.966 258.502C398.319 258.502 399.533 259.227 399.56 260.618H398.491C398.432 259.963 397.927 259.431 396.95 259.431C396.08 259.431 395.473 259.845 395.473 260.57C395.473 261.064 395.806 261.424 396.499 261.59L397.723 261.902C398.835 262.181 399.651 262.702 399.651 263.921C399.651 265.361 398.464 266.15 396.858 266.15C394.86 266.15 394.178 264.963 394.151 263.986ZM402.079 266H400.973V258.668H402.079V266ZM404.598 261.843V262.885C404.598 264.453 405.415 265.189 406.489 265.189C407.568 265.189 408.379 264.453 408.379 262.885V261.843C408.379 260.28 407.568 259.479 406.489 259.479C405.415 259.479 404.598 260.28 404.598 261.843ZM403.481 262.885V261.854C403.481 259.77 404.663 258.518 406.5 258.518C408.336 258.518 409.497 259.77 409.497 261.854V262.885C409.497 264.958 408.32 266.15 406.478 266.15C404.641 266.15 403.481 264.958 403.481 262.885ZM411.94 266H410.898V258.668H411.903L415.469 264.115H415.501V258.668H416.549V266H415.544L411.973 260.543H411.94V266ZM417.72 263.986H418.81C418.875 264.652 419.449 265.216 420.523 265.216C421.501 265.216 422.103 264.749 422.103 264.013C422.103 263.433 421.727 263.116 420.926 262.917L419.691 262.605C418.778 262.38 417.929 261.821 417.929 260.65C417.929 259.259 419.154 258.502 420.534 258.502C421.888 258.502 423.102 259.227 423.128 260.618H422.06C422 259.963 421.496 259.431 420.518 259.431C419.648 259.431 419.041 259.845 419.041 260.57C419.041 261.064 419.374 261.424 420.067 261.59L421.292 261.902C422.403 262.181 423.22 262.702 423.22 263.921C423.22 265.361 422.033 266.15 420.427 266.15C418.429 266.15 417.747 264.963 417.72 263.986Z" fill="white"/>
<path d="M323.397 279.725C329.352 279.725 334.18 274.897 334.18 268.942C334.18 262.986 329.352 258.158 323.397 258.158C317.441 258.158 312.613 262.986 312.613 268.942C312.613 274.897 317.441 279.725 323.397 279.725Z" fill="white"/>
</svg>
