<svg width="28" height="28" viewBox="0 0 28 28" fill="none" xmlns="http://www.w3.org/2000/svg">
<g clip-path="url(#clip0_24_340)">
<path opacity="0.05" d="M14 28C21.732 28 28 21.732 28 14C28 6.26801 21.732 0 14 0C6.26801 0 0 6.26801 0 14C0 21.732 6.26801 28 14 28Z" fill="white"/>
<path d="M15.8852 21C18.2251 21 20.125 19.1201 20.125 16.8052C20.125 15.773 19.7436 14.7704 19.0467 14.0037C19.7436 13.237 20.125 12.2417 20.125 11.2022C20.125 8.88729 18.2251 7.00738 15.8852 7H8.34446H7.875V7.01474C8.02904 7.00738 8.19042 7 8.34446 7C10.9631 7.00738 13.2885 8.10584 14.7556 9.80149H15.8852C16.6554 9.80149 17.2789 10.4282 17.2789 11.2022C17.2789 11.8556 16.8347 12.404 16.2328 12.5591C16.3759 13.3527 16.391 14.5736 16.2781 15.4534C16.8568 15.6237 17.2789 16.1609 17.2789 16.7978C17.2789 17.5718 16.6554 18.1985 15.8852 18.1985H14.7556C13.2958 19.8942 10.9705 21 8.3518 21C8.19042 21 8.03638 20.9927 7.88233 20.9852C7.875 20.9927 7.875 18.1985 7.875 18.1985V21H8.3518H15.8852Z" fill="white"/>
<path d="M7.875 7.00732C11.7774 7.00732 14.939 10.1405 14.939 14.0036C14.939 17.8668 11.7774 21 7.875 21V18.1986C10.215 18.1986 12.1148 16.3185 12.1148 14.0036C12.1148 11.6887 10.215 9.80879 7.875 9.80879V7.00732Z" fill="white"/>
</g>
<defs>
<clipPath id="clip0_24_340">
<rect width="28" height="28" fill="white"/>
</clipPath>
</defs>
</svg>
