<svg width="28" height="28" viewBox="0 0 28 28" fill="none" xmlns="http://www.w3.org/2000/svg">
<g clip-path="url(#clip0_24_332)">
<path opacity="0.05" d="M14.0921 27.5758C21.5898 27.5758 27.6679 21.4978 27.6679 14.0001C27.6679 6.50239 21.5898 0.424316 14.0921 0.424316C6.59443 0.424316 0.516357 6.50239 0.516357 14.0001C0.516357 21.4978 6.59443 27.5758 14.0921 27.5758Z" fill="white"/>
<path d="M9.18335 7.15723H18.59V20.5337H17.2092V14.4064H17.1957C17.043 12.713 15.6198 11.3859 13.8867 11.3859C12.1535 11.3859 10.7302 12.713 10.5777 14.4064H10.5641V20.5337H9.18335V7.15723Z" fill="white"/>
<path d="M6.68042 9.05566L7.24137 10.9542H7.71601V18.6349C7.47771 18.6349 7.28452 18.8281 7.28452 19.0664V19.5842H7.19822C6.95991 19.5842 6.76672 19.7774 6.76672 20.0157V20.5335H11.5995V20.0157C11.5995 19.7774 11.4063 19.5842 11.168 19.5842H11.0817V19.0664C11.0817 18.8281 10.8885 18.6349 10.6502 18.6349H10.1324V9.05566H6.68042Z" fill="white"/>
<path d="M17.2952 18.6349C17.057 18.6349 16.8638 18.8281 16.8638 19.0664V19.5842H16.7775C16.5391 19.5842 16.3459 19.7774 16.3459 20.0157V20.5335H21.1787V20.0157C21.1787 19.7774 20.9855 19.5842 20.7472 19.5842H20.6609V19.0664C20.6609 18.8281 20.4677 18.6349 20.2295 18.6349V10.9542H20.7041L21.265 9.05566H17.8131V18.6349H17.2952Z" fill="white"/>
</g>
<defs>
<clipPath id="clip0_24_332">
<rect width="28" height="28" fill="white"/>
</clipPath>
</defs>
</svg>
