<svg width="184" height="40" viewBox="0 0 184 40" fill="none" xmlns="http://www.w3.org/2000/svg">
<path d="M14.7832 34V21.016H17.3752V23.824L17.0392 23.392C17.3112 22.512 17.8072 21.848 18.5272 21.4C19.2472 20.952 20.0712 20.728 20.9992 20.728C22.0392 20.728 22.9592 21.008 23.7592 21.568C24.5752 22.112 25.1192 22.84 25.3912 23.752L24.6232 23.824C25.0072 22.784 25.5912 22.008 26.3752 21.496C27.1752 20.984 28.0872 20.728 29.1112 20.728C30.0072 20.728 30.8152 20.936 31.5352 21.352C32.2712 21.768 32.8552 22.344 33.2872 23.08C33.7192 23.816 33.9352 24.656 33.9352 25.6V34H31.2232V26.344C31.2232 25.688 31.1032 25.136 30.8632 24.688C30.6392 24.224 30.3192 23.872 29.9032 23.632C29.5032 23.376 29.0312 23.248 28.4872 23.248C27.9432 23.248 27.4632 23.376 27.0472 23.632C26.6312 23.872 26.3032 24.224 26.0632 24.688C25.8232 25.152 25.7032 25.704 25.7032 26.344V34H23.0152V26.344C23.0152 25.688 22.8952 25.136 22.6552 24.688C22.4312 24.224 22.1112 23.872 21.6952 23.632C21.2952 23.376 20.8152 23.248 20.2552 23.248C19.7112 23.248 19.2312 23.376 18.8152 23.632C18.3992 23.872 18.0712 24.224 17.8312 24.688C17.6072 25.152 17.4952 25.704 17.4952 26.344V34H14.7832ZM42.9339 34.288C41.6379 34.288 40.4859 33.992 39.4779 33.4C38.4859 32.792 37.7099 31.976 37.1499 30.952C36.5899 29.912 36.3099 28.752 36.3099 27.472C36.3099 26.16 36.5899 25 37.1499 23.992C37.7259 22.984 38.4939 22.192 39.4539 21.616C40.4139 21.024 41.5019 20.728 42.7179 20.728C43.6939 20.728 44.5659 20.896 45.3339 21.232C46.1019 21.568 46.7499 22.032 47.2779 22.624C47.8059 23.2 48.2059 23.864 48.4779 24.616C48.7659 25.368 48.9099 26.168 48.9099 27.016C48.9099 27.224 48.9019 27.44 48.8859 27.664C48.8699 27.888 48.8379 28.096 48.7899 28.288H38.4459V26.128H47.2539L45.9579 27.112C46.1179 26.328 46.0619 25.632 45.7899 25.024C45.5339 24.4 45.1339 23.912 44.5899 23.56C44.0619 23.192 43.4379 23.008 42.7179 23.008C41.9979 23.008 41.3579 23.192 40.7979 23.56C40.2379 23.912 39.8059 24.424 39.5019 25.096C39.1979 25.752 39.0779 26.552 39.1419 27.496C39.0619 28.376 39.1819 29.144 39.5019 29.8C39.8379 30.456 40.3019 30.968 40.8939 31.336C41.5019 31.704 42.1899 31.888 42.9579 31.888C43.7419 31.888 44.4059 31.712 44.9499 31.36C45.5099 31.008 45.9499 30.552 46.2699 29.992L48.4779 31.072C48.2219 31.68 47.8219 32.232 47.2779 32.728C46.7499 33.208 46.1099 33.592 45.3579 33.88C44.6219 34.152 43.8139 34.288 42.9339 34.288ZM57.8207 39.28C56.8767 39.28 56.0047 39.128 55.2047 38.824C54.4047 38.52 53.7167 38.096 53.1407 37.552C52.5647 37.024 52.1327 36.4 51.8447 35.68L54.3407 34.648C54.5647 35.256 54.9727 35.76 55.5647 36.16C56.1727 36.56 56.9167 36.76 57.7967 36.76C58.4847 36.76 59.1007 36.624 59.6447 36.352C60.1887 36.096 60.6207 35.712 60.9407 35.2C61.2607 34.704 61.4207 34.104 61.4207 33.4V30.472L61.9007 31.024C61.4527 31.856 60.8287 32.488 60.0287 32.92C59.2447 33.352 58.3567 33.568 57.3647 33.568C56.1647 33.568 55.0847 33.288 54.1247 32.728C53.1647 32.168 52.4047 31.4 51.8447 30.424C51.3007 29.448 51.0287 28.352 51.0287 27.136C51.0287 25.904 51.3007 24.808 51.8447 23.848C52.4047 22.888 53.1567 22.128 54.1007 21.568C55.0447 21.008 56.1247 20.728 57.3407 20.728C58.3327 20.728 59.2127 20.944 59.9807 21.376C60.7647 21.792 61.4047 22.4 61.9007 23.2L61.5407 23.872V21.016H64.1087V33.4C64.1087 34.52 63.8367 35.52 63.2927 36.4C62.7647 37.296 62.0287 38 61.0847 38.512C60.1407 39.024 59.0527 39.28 57.8207 39.28ZM57.6767 31.048C58.3967 31.048 59.0367 30.88 59.5967 30.544C60.1567 30.192 60.5967 29.728 60.9167 29.152C61.2527 28.56 61.4207 27.896 61.4207 27.16C61.4207 26.424 61.2527 25.76 60.9167 25.168C60.5807 24.576 60.1327 24.112 59.5727 23.776C59.0127 23.424 58.3807 23.248 57.6767 23.248C56.9407 23.248 56.2847 23.424 55.7087 23.776C55.1327 24.112 54.6767 24.576 54.3407 25.168C54.0207 25.744 53.8607 26.408 53.8607 27.16C53.8607 27.88 54.0207 28.536 54.3407 29.128C54.6767 29.72 55.1327 30.192 55.7087 30.544C56.2847 30.88 56.9407 31.048 57.6767 31.048ZM71.1712 34.288C70.2912 34.288 69.5152 34.136 68.8432 33.832C68.1872 33.512 67.6752 33.08 67.3072 32.536C66.9392 31.976 66.7552 31.32 66.7552 30.568C66.7552 29.864 66.9072 29.232 67.2112 28.672C67.5312 28.112 68.0192 27.64 68.6752 27.256C69.3312 26.872 70.1552 26.6 71.1472 26.44L75.6592 25.696V27.832L71.6752 28.528C70.9552 28.656 70.4272 28.888 70.0912 29.224C69.7552 29.544 69.5872 29.96 69.5872 30.472C69.5872 30.968 69.7712 31.376 70.1392 31.696C70.5232 32 71.0112 32.152 71.6032 32.152C72.3392 32.152 72.9792 31.992 73.5232 31.672C74.0832 31.352 74.5152 30.928 74.8192 30.4C75.1232 29.856 75.2752 29.256 75.2752 28.6V25.264C75.2752 24.624 75.0352 24.104 74.5552 23.704C74.0912 23.288 73.4672 23.08 72.6832 23.08C71.9632 23.08 71.3312 23.272 70.7872 23.656C70.2592 24.024 69.8672 24.504 69.6112 25.096L67.3552 23.968C67.5952 23.328 67.9872 22.768 68.5312 22.288C69.0752 21.792 69.7072 21.408 70.4272 21.136C71.1632 20.864 71.9392 20.728 72.7552 20.728C73.7792 20.728 74.6832 20.92 75.4672 21.304C76.2672 21.688 76.8832 22.224 77.3152 22.912C77.7632 23.584 77.9872 24.368 77.9872 25.264V34H75.3952V31.648L75.9472 31.72C75.6432 32.248 75.2512 32.704 74.7712 33.088C74.3072 33.472 73.7712 33.768 73.1632 33.976C72.5712 34.184 71.9072 34.288 71.1712 34.288ZM87.1582 34.288C85.9102 34.288 84.7902 33.992 83.7982 33.4C82.8222 32.792 82.0462 31.976 81.4702 30.952C80.9102 29.928 80.6302 28.776 80.6302 27.496C80.6302 26.216 80.9182 25.064 81.4942 24.04C82.0702 23.016 82.8462 22.208 83.8222 21.616C84.7982 21.024 85.9022 20.728 87.1342 20.728C88.1742 20.728 89.0942 20.936 89.8942 21.352C90.6942 21.768 91.3262 22.344 91.7902 23.08L91.3822 23.704V15.832H94.0702V34H91.5022V31.36L91.8142 31.864C91.3662 32.648 90.7262 33.248 89.8942 33.664C89.0622 34.08 88.1502 34.288 87.1582 34.288ZM87.4222 31.768C88.1742 31.768 88.8462 31.584 89.4382 31.216C90.0462 30.848 90.5182 30.344 90.8542 29.704C91.2062 29.048 91.3822 28.312 91.3822 27.496C91.3822 26.68 91.2062 25.952 90.8542 25.312C90.5182 24.672 90.0462 24.168 89.4382 23.8C88.8462 23.432 88.1742 23.248 87.4222 23.248C86.6702 23.248 85.9902 23.432 85.3822 23.8C84.7742 24.168 84.3022 24.672 83.9662 25.312C83.6302 25.952 83.4622 26.68 83.4622 27.496C83.4622 28.312 83.6302 29.048 83.9662 29.704C84.3022 30.344 84.7662 30.848 85.3582 31.216C85.9662 31.584 86.6542 31.768 87.4222 31.768ZM97.2363 34V21.016H99.8283V23.632L99.5883 23.248C99.8763 22.4 100.34 21.792 100.98 21.424C101.62 21.04 102.388 20.848 103.284 20.848H104.076V23.32H102.948C102.052 23.32 101.324 23.6 100.764 24.16C100.22 24.704 99.9483 25.488 99.9483 26.512V34H97.2363ZM112.196 34.288C110.948 34.288 109.804 33.992 108.764 33.4C107.74 32.808 106.924 32 106.316 30.976C105.708 29.952 105.404 28.792 105.404 27.496C105.404 26.184 105.708 25.024 106.316 24.016C106.924 22.992 107.74 22.192 108.764 21.616C109.788 21.024 110.932 20.728 112.196 20.728C113.476 20.728 114.62 21.024 115.628 21.616C116.652 22.192 117.46 22.992 118.052 24.016C118.66 25.024 118.964 26.184 118.964 27.496C118.964 28.808 118.66 29.976 118.052 31C117.444 32.024 116.628 32.832 115.604 33.424C114.58 34 113.444 34.288 112.196 34.288ZM112.196 31.768C112.964 31.768 113.644 31.584 114.236 31.216C114.828 30.848 115.292 30.344 115.628 29.704C115.98 29.048 116.156 28.312 116.156 27.496C116.156 26.68 115.98 25.952 115.628 25.312C115.292 24.672 114.828 24.168 114.236 23.8C113.644 23.432 112.964 23.248 112.196 23.248C111.444 23.248 110.764 23.432 110.156 23.8C109.564 24.168 109.092 24.672 108.74 25.312C108.404 25.952 108.236 26.68 108.236 27.496C108.236 28.312 108.404 29.048 108.74 29.704C109.092 30.344 109.564 30.848 110.156 31.216C110.764 31.584 111.444 31.768 112.196 31.768ZM121.611 34V21.016H124.203V23.824L123.867 23.392C124.139 22.512 124.635 21.848 125.355 21.4C126.075 20.952 126.899 20.728 127.827 20.728C128.867 20.728 129.787 21.008 130.587 21.568C131.403 22.112 131.947 22.84 132.219 23.752L131.451 23.824C131.835 22.784 132.419 22.008 133.203 21.496C134.003 20.984 134.915 20.728 135.939 20.728C136.835 20.728 137.643 20.936 138.363 21.352C139.099 21.768 139.683 22.344 140.115 23.08C140.547 23.816 140.763 24.656 140.763 25.6V34H138.051V26.344C138.051 25.688 137.931 25.136 137.691 24.688C137.467 24.224 137.147 23.872 136.731 23.632C136.331 23.376 135.859 23.248 135.315 23.248C134.771 23.248 134.291 23.376 133.875 23.632C133.459 23.872 133.131 24.224 132.891 24.688C132.651 25.152 132.531 25.704 132.531 26.344V34H129.843V26.344C129.843 25.688 129.723 25.136 129.483 24.688C129.259 24.224 128.939 23.872 128.523 23.632C128.123 23.376 127.643 23.248 127.083 23.248C126.539 23.248 126.059 23.376 125.643 23.632C125.227 23.872 124.899 24.224 124.659 24.688C124.435 25.152 124.323 25.704 124.323 26.344V34H121.611ZM149.762 34.288C148.466 34.288 147.314 33.992 146.306 33.4C145.314 32.792 144.538 31.976 143.978 30.952C143.418 29.912 143.138 28.752 143.138 27.472C143.138 26.16 143.418 25 143.978 23.992C144.554 22.984 145.322 22.192 146.282 21.616C147.242 21.024 148.33 20.728 149.546 20.728C150.522 20.728 151.394 20.896 152.162 21.232C152.93 21.568 153.578 22.032 154.106 22.624C154.634 23.2 155.034 23.864 155.306 24.616C155.594 25.368 155.738 26.168 155.738 27.016C155.738 27.224 155.73 27.44 155.714 27.664C155.698 27.888 155.666 28.096 155.618 28.288H145.274V26.128H154.082L152.786 27.112C152.946 26.328 152.89 25.632 152.618 25.024C152.362 24.4 151.962 23.912 151.418 23.56C150.89 23.192 150.266 23.008 149.546 23.008C148.826 23.008 148.186 23.192 147.626 23.56C147.066 23.912 146.634 24.424 146.33 25.096C146.026 25.752 145.906 26.552 145.97 27.496C145.89 28.376 146.01 29.144 146.33 29.8C146.666 30.456 147.13 30.968 147.722 31.336C148.33 31.704 149.018 31.888 149.786 31.888C150.57 31.888 151.234 31.712 151.778 31.36C152.338 31.008 152.778 30.552 153.098 29.992L155.306 31.072C155.05 31.68 154.65 32.232 154.106 32.728C153.578 33.208 152.938 33.592 152.186 33.88C151.45 34.152 150.642 34.288 149.762 34.288Z" fill="white"/>
</svg>
