<svg width="48" height="48" viewBox="0 0 48 48" fill="none" xmlns="http://www.w3.org/2000/svg">
<g clip-path="url(#clip0_24_220)">
<g clip-path="url(#clip1_24_220)">
<path fill-rule="evenodd" clip-rule="evenodd" d="M24 47C36.7025 47 47 36.7025 47 24C47 11.2975 36.7025 1 24 1C11.2975 1 1 11.2975 1 24C1 36.7025 11.2975 47 24 47ZM24 48C37.2548 48 48 37.2548 48 24C48 10.7452 37.2548 0 24 0C10.7452 0 0 10.7452 0 24C0 37.2548 10.7452 48 24 48Z" fill="#394150"/>
<path fill-rule="evenodd" clip-rule="evenodd" d="M24.0588 33.7331C29.4394 33.7331 33.8012 29.3713 33.8012 23.9907C33.8012 18.6101 29.4394 14.2483 24.0588 14.2483C18.6782 14.2483 14.3164 18.6101 14.3164 23.9907C14.3164 29.3713 18.6782 33.7331 24.0588 33.7331ZM24.059 29.986C27.3701 29.986 30.0543 27.3018 30.0543 23.9907C30.0543 20.6795 27.3701 17.9953 24.059 17.9953C20.7478 17.9953 18.0636 20.6795 18.0636 23.9907C18.0636 27.3018 20.7478 29.986 24.059 29.986Z" fill="#394150"/>
<path d="M35.433 15.1162L32.1914 12L28.0365 16.3221L31.278 19.4383L35.433 15.1162Z" fill="#394150"/>
<path d="M13.0377 32.8094L16.2793 35.9255L20.4342 31.6034L17.1926 28.4872L13.0377 32.8094Z" fill="#394150"/>
<path d="M16.2166 12.0097L13.0371 15.1892L17.2765 19.4286L20.456 16.249L16.2166 12.0097Z" fill="#394150"/>
<path d="M32.2541 35.9158L35.4336 32.7363L31.1942 28.497L28.0147 31.6765L32.2541 35.9158Z" fill="#394150"/>
</g>
</g>
<defs>
<clipPath id="clip0_24_220">
<rect width="48" height="48" fill="white"/>
</clipPath>
<clipPath id="clip1_24_220">
<rect width="48" height="48" fill="white"/>
</clipPath>
</defs>
</svg>
