<svg width="48" height="48" viewBox="0 0 48 48" fill="none" xmlns="http://www.w3.org/2000/svg">
<g opacity="0.7" clip-path="url(#clip0_24_305)">
<g clip-path="url(#clip1_24_305)">
<g clip-path="url(#clip2_24_305)">
<path fill-rule="evenodd" clip-rule="evenodd" d="M24 47C36.7025 47 47 36.7025 47 24C47 11.2975 36.7025 1 24 1C11.2975 1 1 11.2975 1 24C1 36.7025 11.2975 47 24 47ZM24 48C37.2548 48 48 37.2548 48 24C48 10.7452 37.2548 0 24 0C10.7452 0 0 10.7452 0 24C0 37.2548 10.7452 48 24 48Z" fill="#394150"/>
<path d="M11 27.1076C11 25.0132 11 22.914 11 20.8196C11.0139 20.1392 11.051 19.4589 11.0371 18.7786C11.0232 18.1032 11.1067 17.4957 11.7468 17.141C12.3823 16.7863 12.8415 17.1702 13.3054 17.5298C14.7201 18.6183 16.1302 19.7116 17.545 20.805C18.8159 21.8352 20.0266 22.9577 21.3718 23.8713C22.55 24.6682 23.2504 25.6012 23.0648 27.1125C23.0509 28.1038 22.986 29.1 23.0416 30.0864C23.0927 31.034 22.5453 30.9563 21.9516 30.966C21.3671 30.9757 20.8755 30.966 20.9682 30.1156C21.0053 29.7657 20.9497 29.4013 20.9404 29.0465C20.9543 28.614 20.9589 28.1816 20.9775 27.7539C21.0192 26.8744 21.0656 25.9997 20.0683 25.6061C17.6702 23.9879 15.6525 21.8255 13.143 20.1733V26.3884C13.143 27.2728 13.143 28.1621 13.143 29.0465C13.1291 29.2846 13.0781 29.5276 13.1105 29.7609C13.2265 30.6647 12.9389 30.9951 12.0019 31C11 31 11.0232 30.4557 11.0371 29.7268C11.0557 28.8521 11.0139 27.9775 11 27.1076Z" fill="#394150"/>
<path d="M36.9993 21.0624C36.888 23.2394 36.9019 25.4164 36.9993 27.5935C36.9761 28.4633 36.9158 29.338 36.9436 30.2078C36.9668 31.0193 36.4705 30.9562 35.9649 30.9562C35.464 30.9562 34.963 31.0242 34.9723 30.2127C34.9815 29.5032 35.0882 28.784 34.8702 28.0843C35.0929 25.4602 34.9537 22.8458 34.9491 20.0079C32.5741 21.8691 30.4358 23.6282 28.2139 25.2561C27.1981 25.9996 26.7806 26.8402 27.0589 28.0794C27.0404 28.6334 26.9847 29.1922 27.0079 29.7413C27.0404 30.4945 27.0079 30.995 26.0245 30.9902C25.0272 30.9902 25.0504 30.4508 25.0458 29.717C25.0458 28.8472 25.1757 27.9725 24.9437 27.1124C24.8881 25.6934 25.3705 24.6681 26.5951 23.8809C27.8985 23.0499 29.0442 21.9468 30.2549 20.9652C31.6372 19.8962 33.0148 18.8125 34.411 17.7629C34.9491 17.3547 35.4408 16.7278 36.2432 17.1458C37.0318 17.5539 36.9158 18.312 36.9297 19.0263C36.9436 19.7067 36.9715 20.387 36.99 21.0673L36.9993 21.0624Z" fill="#394150"/>
</g>
</g>
</g>
<defs>
<clipPath id="clip0_24_305">
<rect width="48" height="48" fill="white"/>
</clipPath>
<clipPath id="clip1_24_305">
<rect width="48" height="48" fill="white"/>
</clipPath>
<clipPath id="clip2_24_305">
<rect width="48" height="48" fill="white"/>
</clipPath>
</defs>
</svg>
