<svg width="48" height="48" viewBox="0 0 48 48" fill="none" xmlns="http://www.w3.org/2000/svg">
<g opacity="0.7" clip-path="url(#clip0_24_311)">
<g clip-path="url(#clip1_24_311)">
<g clip-path="url(#clip2_24_311)">
<path fill-rule="evenodd" clip-rule="evenodd" d="M24 47C36.7025 47 47 36.7025 47 24C47 11.2975 36.7025 1 24 1C11.2975 1 1 11.2975 1 24C1 36.7025 11.2975 47 24 47ZM24 48C37.2548 48 48 37.2548 48 24C48 10.7452 37.2548 0 24 0C10.7452 0 0 10.7452 0 24C0 37.2548 10.7452 48 24 48Z" fill="#394150"/>
<path fill-rule="evenodd" clip-rule="evenodd" d="M31.9484 32.9791L40 24.9275L24 8.92749L8 24.9275L16.0516 32.9791L24 25.0307L31.9484 32.9791ZM16.0516 31.8478L24 23.8994L31.9484 31.8478L38.8686 24.9275L24 10.0589L9.13137 24.9275L16.0516 31.8478Z" fill="#394150"/>
<path fill-rule="evenodd" clip-rule="evenodd" d="M40.0153 24.9445L39.5322 24.606L31.7241 32.2568L30.3573 36.1826L30.8494 36.4966L37.847 29.7138L40.0153 24.9445ZM38.8036 26.16L37.3479 29.3621L31.3396 35.1858L32.2445 32.5869L38.8036 26.16Z" fill="#394150"/>
<path fill-rule="evenodd" clip-rule="evenodd" d="M24.1616 24.2236L24.3927 29.7437L17.1729 36.8062L15.8469 32.5889L24.1616 24.2236ZM16.528 32.7547L17.4521 35.6937L23.782 29.5017L23.6196 25.6201L16.528 32.7547Z" fill="#394150"/>
<path fill-rule="evenodd" clip-rule="evenodd" d="M7.97168 24.958L8.51264 24.6985L10.7179 29.2948L17.5743 36.3377L17.1444 36.7563L10.2195 29.6429L7.97168 24.958Z" fill="#394150"/>
<path fill-rule="evenodd" clip-rule="evenodd" d="M30.6482 36.6037L23.8044 29.8224L24.2268 29.3962L31.0705 36.1775L30.6482 36.6037Z" fill="#394150"/>
</g>
</g>
</g>
<defs>
<clipPath id="clip0_24_311">
<rect width="48" height="48" fill="white"/>
</clipPath>
<clipPath id="clip1_24_311">
<rect width="48" height="48" fill="white"/>
</clipPath>
<clipPath id="clip2_24_311">
<rect width="48" height="48" fill="white"/>
</clipPath>
</defs>
</svg>
