<svg width="48" height="48" viewBox="0 0 48 48" fill="none" xmlns="http://www.w3.org/2000/svg">
<g opacity="0.7" clip-path="url(#clip0_24_297)">
<g clip-path="url(#clip1_24_297)">
<g clip-path="url(#clip2_24_297)">
<path fill-rule="evenodd" clip-rule="evenodd" d="M24 47C36.7025 47 47 36.7025 47 24C47 11.2975 36.7025 1 24 1C11.2975 1 1 11.2975 1 24C1 36.7025 11.2975 47 24 47ZM24 48C37.2548 48 48 37.2548 48 24C48 10.7452 37.2548 0 24 0C10.7452 0 0 10.7452 0 24C0 37.2548 10.7452 48 24 48Z" fill="#394150"/>
<path d="M8.03804 39.6653C7.53648 39.6759 7.29637 39.4323 7.31771 38.9345C7.80861 38.4102 8.2995 37.8859 8.79039 37.3616C11.2929 35.4338 13.4219 33.0877 15.839 31.0699C16.2872 30.6939 16.698 29.5023 17.4184 30.302C18.064 31.017 16.9328 31.4353 16.4899 31.859C14.1262 34.1363 11.7091 36.3659 9.30796 38.6114C8.8811 38.9663 8.45424 39.3158 8.02737 39.6706L8.03804 39.6653Z" fill="#394150"/>
<path d="M10.6572 39.9248C10.2356 40.2849 9.81412 40.6398 9.39259 40.9999C8.92838 40.984 8.66159 40.7669 8.65625 40.2796C9.08845 39.75 9.52598 39.2151 9.95818 38.6855C12.0712 37.3245 13.7466 35.4709 15.5928 33.8079C15.9716 33.4637 16.3825 32.6799 16.9641 33.2942C17.4763 33.8397 16.708 34.1839 16.3665 34.507C14.4776 36.3288 12.562 38.1189 10.6518 39.9248H10.6572Z" fill="#394150"/>
<path d="M6.02107 37.4094C6.19715 37.2399 6.3679 37.0704 6.54398 36.901C8.62493 34.9573 10.7006 33.0031 12.8029 31.0807C13.1604 30.7523 13.5179 29.9155 14.1528 30.6358C14.7077 31.266 13.9127 31.5043 13.5765 31.8274C11.8157 33.5221 10.0443 35.2062 8.27811 36.8957C7.77654 37.3035 7.26964 37.7166 6.76808 38.1243C6.22917 38.1826 5.91969 38.0078 6.02107 37.4094Z" fill="#394150"/>
<path d="M28.1593 25.7105C28.0953 25.7634 28.0313 25.8217 27.9673 25.8746C27.7645 26.0335 27.5511 26.1818 27.6738 26.4943L27.7058 26.5154C27.1029 27.2039 27.2416 28.1042 26.9961 28.8986C27.0068 29.6136 26.5693 30.0955 26.1104 30.5669C25.4488 30.5881 25.1393 31.0859 24.7925 31.5308L24.8031 31.5149C24.5417 31.7002 24.2802 31.8909 24.0241 32.0763C23.4692 31.8644 23.6239 31.2183 23.2824 30.8741C23.1544 29.5765 22.7329 28.5915 21.1268 28.851C20.8013 28.332 20.4545 28.4432 20.065 28.7927C19.7181 29.1052 19.3393 29.3912 18.9765 29.6878C18.2935 29.0681 17.7919 28.5279 18.731 27.6064C19.3606 26.9921 18.5549 26.1818 18.5763 25.4404C17.7065 24.7466 16.618 24.646 15.5989 24.3653C15.2147 23.735 15.775 23.4332 16.0685 23.0413C16.5807 22.3581 17.3971 21.9185 17.6639 21.0394C19.5474 20.9176 21.2122 20.5045 22.5354 18.8998C24.2162 16.8555 26.5053 15.4733 28.8103 14.1757C30.363 13.5826 31.9264 13.0742 33.6392 13C34.8077 12.9524 35.0799 13.3972 34.9785 14.4511C34.8558 15.7328 34.5783 16.9773 34.002 18.1107C32.6894 20.6845 31.2221 23.1684 28.9544 25.0643C28.9437 25.1173 28.9704 25.1491 29.0237 25.165C28.8103 25.1279 28.7143 25.2073 28.7623 25.4298L28.7676 25.4245C28.4688 25.3132 28.3301 25.5357 28.1647 25.7052L28.1593 25.7105ZM28.0099 19.1222C26.3772 18.3967 25.2407 18.8309 25.0432 20.2503C24.547 21.1082 24.7925 21.7914 25.5501 22.3581C26.6066 23.1472 27.7271 22.9247 28.6929 21.7173C29.1785 20.6686 28.9704 19.8001 28.0099 19.1222Z" fill="#394150"/>
</g>
</g>
</g>
<defs>
<clipPath id="clip0_24_297">
<rect width="48" height="48" fill="white"/>
</clipPath>
<clipPath id="clip1_24_297">
<rect width="48" height="48" fill="white"/>
</clipPath>
<clipPath id="clip2_24_297">
<rect width="48" height="48" fill="white"/>
</clipPath>
</defs>
</svg>
