<svg width="48" height="48" viewBox="0 0 48 48" fill="none" xmlns="http://www.w3.org/2000/svg">
<g opacity="0.7" clip-path="url(#clip0_24_201)">
<g clip-path="url(#clip1_24_201)">
<g clip-path="url(#clip2_24_201)">
<path fill-rule="evenodd" clip-rule="evenodd" d="M24 47C36.7025 47 47 36.7025 47 24C47 11.2975 36.7025 1 24 1C11.2975 1 1 11.2975 1 24C1 36.7025 11.2975 47 24 47ZM24 48C37.2548 48 48 37.2548 48 24C48 10.7452 37.2548 0 24 0C10.7452 0 0 10.7452 0 24C0 37.2548 10.7452 48 24 48Z" fill="#394150"/>
<path d="M16.9968 30.3648C15.7481 30.418 14.5158 30.0641 13.4857 29.3564C13.0407 29.0165 12.6851 28.5733 12.4499 28.0651C12.2146 27.5569 12.1067 26.9991 12.1354 26.4398C12.1409 26.1139 12.171 25.7889 12.2255 25.4676C12.3816 24.602 12.6036 23.5637 12.8916 22.3527C13.7079 19.0517 15.8144 17.4012 19.2111 17.4012C20.0624 17.3873 20.9078 17.5466 21.6957 17.8694C22.3951 18.1435 22.9968 18.62 23.4241 19.2378C23.8549 19.8744 24.0751 20.6302 24.0536 21.3986C24.0474 21.7184 24.0173 22.0374 23.9635 22.3527C23.7833 23.421 23.5673 24.4593 23.3155 25.4676C22.8958 27.1119 22.1696 28.3422 21.137 29.1585C20.1054 29.9627 18.7253 30.3648 16.9968 30.3648ZM17.249 27.772C17.8726 27.7892 18.481 27.5779 18.9597 27.1779C19.4887 26.6981 19.8486 26.0603 19.9858 25.3594C20.262 24.2315 20.4718 23.2473 20.6153 22.4066C20.6636 22.1513 20.6877 21.8921 20.6873 21.6323C20.6873 20.5399 20.1172 19.9938 18.977 19.994C18.3483 19.9789 17.7351 20.1897 17.2486 20.5881C16.7293 21.073 16.3764 21.7094 16.2402 22.4066C16.0241 23.2108 15.8081 24.1951 15.5922 25.3594C15.5433 25.6085 15.5192 25.8618 15.5202 26.1156C15.5202 27.2199 16.0965 27.772 17.249 27.772Z" fill="#394150"/>
<path d="M24.8826 30.1849C24.8254 30.1883 24.7682 30.1787 24.7152 30.1569C24.6622 30.1351 24.6148 30.1017 24.5765 30.059C24.5166 29.9623 24.4972 29.8458 24.5226 29.7348L27.0072 18.0315C27.0292 17.9024 27.0995 17.7864 27.2039 17.7073C27.3004 17.6277 27.4211 17.5833 27.5462 17.5814H32.3356C33.4632 17.5261 34.5809 17.8149 35.5406 18.4096C35.9351 18.668 36.2555 19.0248 36.4702 19.4447C36.6849 19.8647 36.7865 20.3333 36.765 20.8045C36.7632 21.1196 36.727 21.4336 36.6568 21.7409C36.4582 22.954 35.8087 24.0473 34.8383 24.8019C33.9381 25.4621 32.7017 25.7922 31.1293 25.7922H28.699L27.8708 29.7352C27.8488 29.8644 27.7784 29.9803 27.6741 30.0594C27.5777 30.139 27.4571 30.1834 27.3322 30.1853L24.8826 30.1849ZM31.2564 23.3068C31.7281 23.3172 32.1902 23.1717 32.5709 22.8929C32.9626 22.6052 33.2323 22.1813 33.3271 21.7047C33.3605 21.5265 33.3785 21.3458 33.381 21.1645C33.3912 21.018 33.3691 20.8711 33.3162 20.7342C33.2633 20.5972 33.1809 20.4736 33.0749 20.3721C32.7744 20.1502 32.4024 20.0476 32.0307 20.0841H29.8703L29.1861 23.3068H31.2564Z" fill="#394150"/>
</g>
</g>
</g>
<defs>
<clipPath id="clip0_24_201">
<rect width="48" height="48" fill="white"/>
</clipPath>
<clipPath id="clip1_24_201">
<rect width="48" height="48" fill="white"/>
</clipPath>
<clipPath id="clip2_24_201">
<rect width="48" height="48" fill="white"/>
</clipPath>
</defs>
</svg>
