<svg width="48" height="48" viewBox="0 0 48 48" fill="none" xmlns="http://www.w3.org/2000/svg">
<g clip-path="url(#clip0_24_208)">
<g clip-path="url(#clip1_24_208)">
<path fill-rule="evenodd" clip-rule="evenodd" d="M24 47C36.7025 47 47 36.7025 47 24C47 11.2975 36.7025 1 24 1C11.2975 1 1 11.2975 1 24C1 36.7025 11.2975 47 24 47ZM24 48C37.2548 48 48 37.2548 48 24C48 10.7452 37.2548 0 24 0C10.7452 0 0 10.7452 0 24C0 37.2548 10.7452 48 24 48Z" fill="#394150"/>
<path d="M12 26.0013C13.7236 27.0388 15.4844 26.6736 17.1936 26.6875C21.8202 26.7267 26.4469 26.7178 31.0735 26.6887C32.1787 26.6824 32.8691 27.1614 33.2814 28.2242C34.118 30.3751 34.9918 32.5095 35.8416 34.6541C36.2096 35.5829 35.9423 35.9924 34.9774 35.9924C29.3535 35.9949 23.7296 35.9836 18.1057 36C16.677 36.0038 15.7217 35.4578 15.1739 33.9654C14.2066 31.3305 13.1051 28.7512 12 26V26.0013Z" fill="#394150"/>
<path d="M20.0792 24.9924C18.6717 24.9924 17.2629 24.9924 15.8554 24.9924C15.6715 24.9924 15.4876 24.9875 15.3049 24.9789C14.8046 24.9542 14.2737 24.9037 14.0604 24.3775C13.8544 23.8711 14.2161 23.4718 14.53 23.128C15.4949 22.0707 16.4795 21.0307 17.464 19.9907C20.1184 17.1811 22.7765 14.3727 25.4371 11.5681C26.2341 10.7289 26.6755 10.8115 27.1217 11.8688C27.9923 13.9378 28.837 16.0191 29.7419 18.0732C30.2078 19.1305 30.0422 19.9882 29.2514 20.8064C28.0438 22.0559 26.8655 23.335 25.6934 24.6203C25.4334 24.9049 25.1674 25.0048 24.7922 24.9998C23.2216 24.9813 21.6498 24.9924 20.0792 24.9912V24.9924Z" fill="#394150"/>
</g>
</g>
<defs>
<clipPath id="clip0_24_208">
<rect width="48" height="48" fill="white"/>
</clipPath>
<clipPath id="clip1_24_208">
<rect width="48" height="48" fill="white"/>
</clipPath>
</defs>
</svg>
