<svg width="48" height="48" viewBox="0 0 48 48" fill="none" xmlns="http://www.w3.org/2000/svg">
<g clip-path="url(#clip0_24_214)">
<g clip-path="url(#clip1_24_214)">
<path fill-rule="evenodd" clip-rule="evenodd" d="M24 47C36.7025 47 47 36.7025 47 24C47 11.2975 36.7025 1 24 1C11.2975 1 1 11.2975 1 24C1 36.7025 11.2975 47 24 47ZM24 48C37.2548 48 48 37.2548 48 24C48 10.7452 37.2548 0 24 0C10.7452 0 0 10.7452 0 24C0 37.2548 10.7452 48 24 48Z" fill="#394150"/>
<path d="M23.9574 27.2103C22.92 28.4394 21.9451 29.5634 21.0076 30.7197C19.8244 32.1833 18.3328 32.9677 16.3746 32.9191C14.6164 32.8747 12.854 32.9111 11 32.9111V29.0822C12.5791 29.0822 14.1289 29.0418 15.6747 29.0984C16.5121 29.1267 17.1079 28.8801 17.637 28.2453C20.5493 24.7561 23.5616 21.3438 26.3947 17.7939C27.9488 15.8492 29.7862 14.8586 32.3276 15.0163C33.6026 15.0972 34.8858 15.0527 36.1649 15.0203C36.7982 15.0042 37.0231 15.2225 36.9981 15.8371C36.9565 16.8034 36.9856 17.7697 36.9856 18.8936C35.3191 18.8936 33.74 18.9219 32.1652 18.8815C31.2944 18.8572 30.6944 19.1241 30.1486 19.8235C29.0487 21.2386 27.8405 22.5729 26.6614 23.9556C27.9113 25.4475 29.1154 26.9596 30.4194 28.3868C30.7569 28.7547 31.3985 29.0256 31.9152 29.0499C33.5609 29.1348 35.2149 29.0822 36.9232 29.0822V33C34.4858 32.8989 32.0402 32.9272 29.6403 32.624C28.7737 32.5148 27.903 31.7062 27.2322 31.027C26.0864 29.8706 25.1032 28.5688 23.9491 27.2103H23.9574Z" fill="#394150"/>
<path d="M21.9959 18.1374C21.0933 19.1111 20.2484 20.0189 19.3376 21C18.7442 20.3557 18.2537 19.7005 17.6232 19.1843C17.2152 18.8512 16.6093 18.5583 16.0694 18.5217C14.6764 18.4302 13.2711 18.4668 11.874 18.4998C11.2104 18.5144 10.9632 18.3094 11.0044 17.7127C11.0538 17.0172 10.9673 16.3144 11.0497 15.6262C11.0744 15.3992 11.4453 15.0295 11.6638 15.0258C13.539 14.9929 15.4183 14.9819 17.2935 15.0514C19.5849 15.1356 20.7719 16.6145 22 18.1374H21.9959Z" fill="#394150"/>
</g>
</g>
<defs>
<clipPath id="clip0_24_214">
<rect width="48" height="48" fill="white"/>
</clipPath>
<clipPath id="clip1_24_214">
<rect width="48" height="48" fill="white"/>
</clipPath>
</defs>
</svg>
